<svg width="1051" height="1051" viewBox="0 0 1051 1051" fill="none" xmlns="http://www.w3.org/2000/svg">
<g clip-path="url(#clip0_3_2)">
<mask id="mask0_3_2" style="mask-type:luminance" maskUnits="userSpaceOnUse" x="0" y="0" width="1051" height="1051">
<path d="M851.597 0H199.403C89.2757 0 0 89.2757 0 199.403V851.597C0 961.724 89.2757 1051 199.403 1051H851.597C961.724 1051 1051 961.724 1051 851.597V199.403C1051 89.2757 961.724 0 851.597 0Z" fill="white"/>
</mask>
<g mask="url(#mask0_3_2)">
<path d="M893.22 86.0606C893.278 86.341 893.336 86.6213 893.394 86.9017C891.465 139.376 887.927 196.601 860.151 242.607C852.11 255.926 845.258 264.324 836.925 274.477C845.659 271.866 860.246 269.446 869.518 267.646C860.191 295.017 848.31 307.34 823.112 320.52C835.647 332.096 848.626 342.105 859.314 355.692C861.96 359.055 865.596 363.684 868.526 366.629C811.751 360.526 749.912 359.249 692.983 363.473C688.536 363.803 679.758 367.76 675.399 369.566C692.305 366.837 719.974 366.422 737.293 366.414C768.363 366.309 799.429 367.243 830.437 369.213C850.14 370.475 869.709 372.637 889.404 373.786C889.298 383.744 887.832 402.606 888.727 412.034C876.53 409.836 863.957 408.492 851.728 406.619C880.264 424.562 913.716 520.828 926.06 555.428C921.331 554.221 915.471 552.179 910.733 550.672C910.567 553.94 910.552 557.186 910.524 560.454C910.344 581.086 910.034 601.924 907.921 622.467C906.845 632.44 905.421 642.373 903.649 652.247C902.57 657.984 900.468 666.731 900.003 672.098C895.086 666.895 891.606 660.969 885.761 655.19C878.784 673.674 873.098 693.439 865.842 712.608C862.221 722.021 858.444 731.373 854.509 740.659C852.073 746.381 849.047 752.699 847.039 758.447C845.122 752.661 841.825 740.096 840.892 734.145C830.782 755.375 821.207 774.518 809.143 794.81C801.208 808.158 791.979 821.959 784.592 835.449C784.528 824.516 784.283 813.017 784.536 802.126C771.529 808.637 755.949 817.765 743.031 824.907L669.023 865.93L630.669 886.921C622.891 891.169 613.429 896.161 606.199 901.082C601.341 904.388 595.113 909.915 590.35 913.676C578.791 922.679 567.304 931.776 555.894 940.967C546.334 948.75 535.203 958.367 525.113 965.198C511.105 951.998 492.956 939.957 477.941 927.601C462.911 915.234 447.759 901.836 430.699 892.51C425.337 889.579 419.868 886.699 414.47 883.78L373.46 861.547C337.681 842.01 302.312 821.73 267.377 800.723C267.363 810.744 266.855 821.21 266.428 831.235C258.93 823.568 244.869 799.425 239.076 789.599C228.858 771.751 219.368 753.498 210.63 734.882C207.445 741.692 204.389 748.1 201.676 755.111C187.612 726.064 173.505 682.794 165.735 652.277C160.607 658.179 155.689 664.439 150.79 670.549C140.824 626.235 139.769 594.144 139.671 549.747C134.504 551.556 129.754 553.216 124.688 555.319C127.55 545.405 131.302 535.933 134.759 526.021C148.276 487.253 165.805 449.606 188.167 415.128C192.375 408.642 198.467 409.844 200.895 406.92L200.416 406.435C195.087 406.016 168.697 410.579 161.834 411.604C162.473 400.639 162.126 384.658 161.654 373.632C209.401 370.251 255.88 367.107 304.025 367.468C318.923 367.58 343.318 367.739 358.923 367.094C359.475 367.07 361.288 365.822 361.746 364.729L361.238 363.76C354.444 360.235 316.264 362.128 306.727 362.292C274.993 362.565 243.269 363.537 211.578 365.206C201.634 365.835 191.7 366.605 181.778 367.515C195.964 350.592 211.673 335.612 227.4 320.242C200.136 304.914 192.925 295.442 181.617 267.632C192.02 270.148 202.454 272.542 212.912 274.817C208.322 268.721 203.748 262.62 199.227 256.473C167.387 213.17 160.764 157.717 158.668 105.547C158.413 99.2372 158.272 92.5538 157.481 86.3089L157.355 85.3429C183.529 128.233 231.119 172.612 271.963 201.613C286.438 198.083 305.301 195.132 320.386 191.891L448.236 164.327C462.214 161.376 476.165 158.299 490.086 155.097C525.513 146.935 522.864 145.992 558.726 154.147L603.466 164.261L779.602 203.106C813.752 178.103 844.421 148.664 870.8 115.564C878.951 105.517 885.505 96.1048 893.22 86.0606ZM236.1 402.113C235.781 404.981 235.449 407.852 235.189 410.725C228.592 483.445 261.631 556.357 341.404 564.992C357.598 566.593 373.946 564.724 389.36 559.51C433.638 542.345 463.093 506.738 466.316 459.609C467.952 435.68 452.501 422.803 431.678 413.608C394.041 399.02 347.875 396.938 307.714 397.947C282.825 398.777 260.945 400.144 236.1 402.113ZM747.501 402.341L754.775 402.026C758.176 424.771 758.668 442.763 751.114 464.918C731.616 522.097 660.623 553.783 608.247 518.388C604.868 515.495 600.557 508.738 599.169 504.583C607.841 511.229 615.965 516.849 626.24 520.937C663.127 535.617 706.658 520.13 730.227 489.283C749.307 464.311 752.362 434.368 747.801 404.16C747.71 403.552 747.61 402.946 747.501 402.341ZM598.24 505.76C600.683 510.604 603.877 515.347 606.814 519.934C620.191 537.742 636.831 551.443 657.934 559.206C685.966 569.518 717.272 569.246 744.457 556.529C776.035 541.756 796.286 515.705 808.031 483.446C814.572 465.482 823.427 427.902 815.032 410.884C812.128 404.994 806.85 401.758 800.823 399.73C773.56 390.558 674.174 399.441 643.616 405.441C632.915 407.542 621.235 410.759 611.486 415.656C600.471 421.187 590.206 429.435 586.315 441.543C579.701 462.125 588.827 487.498 598.24 505.76ZM181.539 148.175C216.664 243.602 271.164 315.974 364.683 359.168C378.941 365.589 393.479 371.368 408.255 376.49C444.649 389.324 467.086 393.653 490.724 427.526C515.339 416.39 531.897 415.996 557.437 425.574L560.25 426.646C586.295 389.661 621.187 384.265 661.321 369.786C764.205 332.667 819.964 263.523 862.32 165.902C864.852 159.487 867.328 152.863 869.901 146.495C857.823 161.962 847.668 179.005 836.09 194.924C810.603 229.97 781.539 261.737 746.824 287.785C724.619 304.39 700.624 318.454 675.286 329.712C658.286 337.048 641.112 343.974 623.779 350.484C582.047 366.094 556.007 375.14 525.571 410.78C518.323 402.908 512.488 396.39 504.168 389.556C467.486 359.421 420.195 348.745 377.596 330.308C351.479 318.768 326.812 304.191 304.104 286.881C267.466 259.201 237.148 225.444 209.782 188.753C203.222 179.959 188.408 154.366 181.539 148.175ZM486.384 516.616C489.886 529.195 523.209 642.468 525.841 646.21L526.375 645.479C535.346 614.453 544.566 583.499 554.031 552.619C556.373 545.059 562.66 522.691 565.515 516.791C559.496 503.461 553.428 489.549 541.715 480.146C537.066 476.413 530.209 471.772 524 472.161C504.453 477.096 491.775 498.601 486.384 516.616ZM415.539 183.901C407.549 193.671 400.351 205.709 392.561 215.624C402.428 223.238 412.246 230.917 422.013 238.661L443.246 255.647C445.951 257.813 451.173 262.317 453.886 264.114C470.41 239.736 502.967 189.153 520.132 161.782C520.095 161.445 520.058 161.108 520.021 160.772L518.456 160.749C509.029 163.059 498.392 164.992 488.814 166.992C473.863 170.176 458.953 173.546 444.087 177.102C434.655 179.297 424.815 181.295 415.539 183.901ZM596.805 263.884L629.927 237.211C638.702 230.399 648.214 222.648 657.045 216.105L633.662 182.803C600.288 175.347 564.319 166.73 530.977 160.412C536.58 170.926 543.026 179.786 549.235 189.817C564.705 214.753 580.563 239.445 596.805 263.884ZM207.759 473.192C203.801 478.803 196.611 486.629 191.919 491.97C179.975 505.587 167.671 518.882 155.018 531.843C163.708 527.309 175.952 522.447 185.135 518.408C194.779 514.166 207.087 508.159 216.778 504.624C231.68 579.157 319.334 609.655 386.637 594.837C421.157 587.238 449.058 571.21 469.187 541.681C473.726 534.917 477.752 527.822 481.229 520.456C484.298 513.955 486.676 506.755 489.869 500.507C498.957 482.724 517.499 459.603 539.217 474.638C561.641 490.16 564.996 515.152 579.103 536.541C589.574 552.411 599.301 563.632 615.255 574.355C646.153 595.12 690.167 603.454 726.622 596.541C766.149 589.045 798.401 566.951 826.787 539.503C827.186 529.921 827.536 520.338 827.835 510.753C823.426 518.385 820.056 525.292 815.031 532.644C796.343 560.437 768.257 580.556 735.93 589.307C698.848 599.033 659.427 593.741 626.223 574.58C605.705 562.672 592.268 547.708 580.209 527.361C567.299 505.58 567.765 482.948 544.655 468.235C537.506 463.685 532.866 461.614 524.291 461.6C511.232 462.919 501.879 469.499 493.563 479.385C483.494 491.354 481.583 506.77 475.291 520.604C439.251 599.849 327.311 615.819 262.405 563.436C231.357 538.378 218.57 510.183 207.759 473.192ZM531.157 727.908C542.014 739.505 553.958 751.967 564.519 763.79C573.807 774.029 583.252 784.856 592.952 794.634C601.91 763.004 610.624 731.304 619.096 699.54C621.3 691.166 628.035 667.433 629.072 659.498L628.56 658.864C615.443 667.254 602.911 676.91 590.062 685.711C569.908 699.515 550.528 713.005 531.157 727.908ZM455.305 789.899C466.744 778.804 478.464 768.407 489.72 757.579C500.494 748.021 510.738 737.595 521.563 727.875C498.633 710.333 472.169 692.566 448.443 676.021C442.045 671.56 427.346 660.153 421.304 657.075L441.48 737.338C444.85 751.166 450.449 777.368 455.305 789.899ZM316.997 282.771C324.446 281.132 333.449 280.364 341.113 279.1C363.638 275.383 386.903 273.555 409.351 270.251C402.089 267.886 393.308 266.139 385.968 264.353C333.441 251.573 284.636 229.372 242.832 194.808C237.714 190.577 231.292 183.956 225.935 180.296L225.223 179.819C220.057 174.744 212.451 168.53 206.787 163.736C208.763 166.24 217.277 178.714 218.265 179.646C223.419 187.874 232.388 198.807 238.544 206.38C259.064 231.627 289.787 264.563 316.997 282.771ZM637.683 270.287C642.442 270.614 646.753 271.269 651.297 271.639C677.827 274.513 709.717 277.756 736.016 281.663C771.91 253.884 803.659 221.126 830.301 184.38C832.856 180.874 842.232 168.171 842.563 164.702C777.941 226.766 725.421 254.541 637.683 270.287ZM531.458 384.469C539.802 371.03 545.74 358.554 553.249 344.842C565.619 320.627 580.891 295.909 591.966 271.251C571.242 266.513 550.447 262.087 529.59 257.973C529.446 281.395 529.916 305.357 530.601 328.795C531.088 345.406 529.968 368.506 531.458 384.469ZM458.221 271.261L498.194 345.086C504.712 357.558 513.193 372.726 519.084 385.155C520.397 359.709 519.496 333.117 520.815 307.535C521.093 302.159 522.266 261.518 521.174 258.506L520.858 258.321C500.114 261.983 478.85 266.81 458.221 271.261ZM542.916 376.287C553.978 369.188 562.228 364.267 573.868 358.148C599.005 346.27 619.893 340.634 644.13 330.352C634.764 319.14 625.461 307.873 616.222 296.555C610.998 290.125 602.694 279.364 597.001 273.741C581.111 302.041 566.457 331.351 551.134 359.982C548.275 365.324 545.497 370.805 542.916 376.287ZM406.713 329.778C428.236 337.093 460.239 349.17 479.947 359.247C490.683 364.737 498.439 369.738 508.463 376.551C504.358 368.37 499.912 359.913 495.477 351.887C481.26 326.157 468.268 299.107 453.277 273.864C438.644 292.538 420.518 310.947 406.713 329.778ZM604.907 264.47C612.408 262.862 620.75 262.959 628.537 261.186C674.747 254.035 726.568 237.319 766.208 212.225C756.784 210.307 749.728 209.911 740.067 210.706C726.178 211.848 712.332 213.61 698.469 215.045C688.684 216.059 670.949 216.586 662.221 219.962C655.141 222.701 613.607 256.754 604.907 264.47ZM649.35 328.532C669.567 320.168 685.378 313.177 704.38 302.373C711.871 298.024 723.281 291.755 729.691 286.57C704.897 283.201 680.037 280.338 655.127 277.979C642.693 276.826 630.286 275.412 617.913 273.736C614.174 273.236 606.618 272.408 603.216 271.644C605.457 275.873 612.184 283.296 615.342 287.401C625.868 301.087 639.067 314.873 649.35 328.532ZM532.318 719.14L531.867 720.55C533.217 720.475 534.154 719.337 535.48 718.313C566.619 697.909 597.054 673.895 628.809 653.331C611.829 641.876 593.964 630.186 577.246 618.476C567.83 642.009 556.982 665.861 546.645 689.031C542.132 699.147 536.874 709.105 532.318 719.14ZM324.072 287.164C332.911 293.261 341.977 299.022 351.25 304.434C368.507 314.026 382.719 320.05 401.164 327.529C411.861 314.44 423.66 301.707 434.342 288.573C437.725 284.412 444.333 277.054 447.146 272.824C445.59 272.248 445.565 272.476 443.793 272.706C415.391 275.661 387.009 278.799 358.649 282.118C347.267 283.538 335.201 285.92 324.072 287.164ZM516.556 718.093C517.295 718.689 518.052 719.109 518.862 719.608L519.199 719.102L518.45 717.017C514.641 710.097 510.882 702.003 507.665 694.754C496.483 669.551 484.288 644.571 473.099 619.393C458.711 628.016 436.798 642.364 423.137 652.073C440.328 664.53 457.364 676.115 474.69 688.284L516.556 718.093ZM443.203 264.126L443.796 263.983C443.001 261.884 390.998 219.975 387.81 219.512C363.716 216.017 324.908 213.42 299.161 210.982C296.206 210.701 291.397 210.906 288.645 211.048L287.752 211.692C289.231 213.64 300.734 219.946 303.685 221.555C347.545 245.47 392.166 257.209 441.163 263.901C441.841 263.992 442.521 264.068 443.203 264.126ZM705.02 831.556C713.484 827.426 722.535 822.332 730.878 817.855C748.516 808.547 765.991 798.931 783.293 789.011C783.287 765.271 784.211 733.273 782.916 710.116C778.968 716.039 766.838 734.866 763.619 740.294C757.424 750.745 704.744 828.36 705.02 831.556ZM267.8 787.006C288.879 800.013 310.849 811.825 331.918 824.901C335.684 827.238 339.545 829.528 343.399 831.717C340.075 824.436 332.067 812.339 327.666 805.325C319.481 792.269 311.391 779.157 303.397 765.984L280.161 727.738C277.716 723.707 270.953 712.034 268.351 709.012C268.471 735.05 267.849 760.952 267.8 787.006ZM355.747 826.387C355.625 801.801 356.029 779.198 355.298 754.49C336.457 746.164 315.311 730.981 298.064 719.444C294.81 717.267 283.609 707.393 281.506 706.515C299.041 737.129 318.589 768.036 336.993 798.14C339.201 801.751 353.417 824.359 355.332 826.298L355.747 826.387ZM460.788 265.07C481.356 261.471 501.333 256.501 521.803 252.51C521.541 244.839 521.882 235.021 521.919 227.173C521.964 208.917 522.144 190.663 522.46 172.41L522.319 170.042L521.676 170.044L519.485 173.504C517.919 175.401 514.621 180.576 513.145 182.769C507.891 190.677 502.706 198.631 497.592 206.631C486.556 223.648 470.336 247.48 460.788 265.07ZM699.827 751.38C697.368 775.242 695.761 799.184 695.006 823.161L695.354 823.38C711.024 800.091 726.48 776.661 741.721 753.091C750.603 739.386 762.456 722.111 769.531 707.859L769.181 707.208C746.788 721.668 722.467 737.702 699.827 751.38ZM529.728 252.925C537.247 253.29 545.142 255.312 552.51 256.892C565.3 259.634 578.252 263.124 591.142 265.286C586.217 258.909 579.665 247.939 575.193 240.933C565.796 226.442 556.594 211.824 547.592 197.085C544.544 192.105 532.028 171.316 529.101 168.61C529.013 195.472 529.063 225.957 529.728 252.925ZM790.944 575.303C795.606 587.211 800.439 599.05 805.444 610.818C807.702 616.134 809.903 621.477 812.428 626.671C822.466 600.434 826.462 574.01 826.588 545.953C813.2 559.018 806.559 564.923 790.944 575.303ZM421.779 647.073L431.168 641.065C442.816 633.309 459.548 621.969 471.442 615.14C466.827 603.082 462.145 591.482 459.564 578.735C459.041 576.149 458.65 568.069 457.417 566.873C445.899 593.468 432.657 620.098 421.779 647.073ZM528.431 776.606C540.834 780.247 552.493 784.302 564.669 788.55C571.144 790.81 580.702 794.415 587.266 795.89C586.769 793.384 534.033 737.225 528.494 732.248C527.623 745.32 528.692 763.016 528.431 776.606ZM414.451 661.378C408.86 670.034 366.366 739.577 366.058 744.705C380.751 744.238 396.141 741.422 410.564 740.917C411.084 713.901 412.901 688.226 414.451 661.378ZM264.697 676.207C279.224 655.148 293.475 633.097 307.025 611.344C308.319 609.267 310.199 606.366 311.195 604.214L310.568 604.019C299.581 607.939 288.598 611.451 277.599 615.451C265.08 620.005 252.368 625.046 239.755 629.186C243.812 639.554 249.444 653.404 255.615 662.744C258.068 666.768 261.614 672.881 264.697 676.207ZM692.091 636.96C698.248 645.279 704.24 653.72 710.061 662.277C713.775 667.612 717.527 673.153 721.307 678.418C722.062 669.649 730.703 605.116 728.622 601.932C715.31 613.362 704.531 624.683 692.091 636.96ZM462.349 565.91C462.631 586.423 478.904 620.103 487.528 639.446C495.926 658.6 504.645 677.612 513.684 696.471C515.426 700.051 521.061 712.251 522.878 714.491L523.413 714.49L523.481 688.3C523.565 681.43 524.961 672.533 523.149 665.908C520.925 657.773 468.94 572.612 462.723 566.255C462.605 566.133 462.474 566.025 462.349 565.91ZM215.254 712.319C219.57 708.539 224.348 704.504 228.534 700.634C236.447 693.882 244.679 687.368 252.69 680.705C244.182 667.633 236.165 654.298 230.544 639.691C229.799 637.755 227.976 632.116 226.849 630.986C224.181 646.783 221.693 662.611 219.386 678.467C217.78 689.352 215.903 701.372 215.254 712.319ZM799.358 680.47C807.363 686.518 815.663 693.553 823.329 700.094C827.597 703.88 831.962 707.628 835.944 711.706C834.208 701.891 826.492 632.298 824.477 630.087C820.665 637.45 817.182 645.858 813.6 653.443C809.241 662.651 804.489 671.669 799.358 680.47ZM676.724 601.442C680.95 611.827 685.365 622.135 689.965 632.361C695.207 627.313 700.16 622.177 705.274 617.015C710.378 612.109 716.27 607.018 721.128 602.202C713.09 603.438 684.47 603.71 676.724 601.442ZM414.448 741.384C424.536 755.32 437.681 770.808 446.921 784.361L447.858 785.029C448.305 784.345 448.286 784.654 448.109 783.924C442.091 759.172 436.429 733.549 429.934 708.989C427.306 699.048 421.879 675.51 418.344 666.951C416.689 691.743 415.389 716.556 414.448 741.384ZM330.026 688.163C311.136 686.974 292.498 685.39 273.634 684.306C276.461 689.614 313.063 715.291 320.036 720.274C328.182 726.095 347.884 738.737 357.261 742.55C354.917 736.384 351.274 730.118 348.345 724.177C342.524 712.369 335.53 700.051 330.026 688.163ZM331.755 677.039L332.588 679.171C333.871 679.052 333.297 679.099 334.604 677.678C335.946 672.463 353.873 644.407 357.759 637.71C347.034 627.033 331.033 611.232 321.207 600.275C322.772 617.572 324.904 634.813 327.598 651.97C328.663 658.827 331.262 670.681 331.755 677.039ZM257.704 573.444C247.545 565.89 240.039 558.684 232.413 548.527C229.73 544.954 227.027 540.315 224.251 537.082C224.316 556.279 230.299 605.785 237.452 623.073C238.565 619.739 241.563 611.135 243.236 608.201C247.841 597.613 253.933 584.21 257.704 573.444ZM241.781 622.971C254.439 619.665 266.221 614.092 278.271 610.258C289.085 606.081 300.026 602.237 311.077 598.734C290.489 592.701 279.642 588.285 261.409 576.45C256.194 589.679 248.081 610.535 241.781 622.971ZM787.188 677.837L795.391 662.493C801.245 651.31 806.544 641.69 811.015 629.777C794.55 623.413 777.946 617.417 761.214 611.792C756.14 610.059 743.738 605.614 738.955 604.826C748.748 621.936 759.493 637.589 770.728 653.758C776.246 661.698 781.4 670.15 787.188 677.837ZM295.125 323.97C288.434 317.786 278.456 308.507 271.099 303.365C266.602 300.221 253.667 297.088 248.084 295.398C233.331 290.931 216.431 287.604 201.974 282.765C216.729 306.484 243.331 313.461 268.997 319.934C275.341 321.534 288.853 323.812 295.125 323.97ZM411.274 653.046C397.589 649.503 374.054 644.211 361.71 639.532C356.108 651.185 343.426 669.911 336.378 682.037C347.902 678.647 361.262 673.079 372.635 668.704C385.407 663.608 398.663 658.479 411.274 653.046ZM319.076 207.287C341.603 209.204 365.129 210.9 387.383 214.552C393.922 204.777 401.728 195.224 407.937 185.743C407.395 185.321 407.651 185.366 407.265 185.351C374.565 192.273 342.448 198.438 309.881 206.062C313.109 206.592 315.808 207.053 319.076 207.287ZM779.416 685.85C771.892 685.951 764.367 685.95 756.844 685.847C745.996 686.53 735.126 686.807 724.258 686.681C715.291 703.779 702.622 723.263 692.831 740.877C697.434 738.85 703.101 735.246 707.286 732.387C730.734 717.579 756.027 699.698 779.416 685.85ZM713.57 680.043C715.092 680.541 715.516 680.97 716.853 680.682L716.539 679.42C708.148 669.44 696.478 651.076 688.356 639.809C672.583 644.398 656.782 648.887 640.954 653.274C665.825 663.839 689.068 670.673 713.57 680.043ZM662.035 214.047C681.805 210.73 707.371 208.999 727.821 206.698C730.486 206.357 733.275 206.046 735.915 205.608C704.371 197.38 671.215 191.999 640.118 184.104C646.98 193.946 655.699 204.535 662.035 214.047ZM739.655 598.82C749.438 602.867 760.145 605.91 770.155 609.68C781.812 613.716 793.425 617.877 804.993 622.16C803.491 618.469 787.427 578.419 786.836 577.882C768.761 587.905 759.232 592.113 739.655 598.82ZM852.945 527.574C856.005 536.554 861.645 547.744 865.468 557.017C875.596 581.582 885.116 605.329 893.683 630.502C894.598 629.489 894.609 627.309 894.84 625.689C897.565 599.597 899.779 572.342 899.226 546.078C884.39 540.443 867.663 532.217 852.945 527.574ZM831.108 504.501C846.437 510.411 867.734 518.26 882.535 525.302C885.894 526.713 889.226 528.186 892.53 529.724C889.283 526.14 886.075 522.521 882.906 518.868C876.506 511.192 869.476 503.531 862.92 495.877C856.923 488.878 848.343 477.798 841.753 471.762C838.933 482.898 835.377 493.835 831.108 504.501ZM602.32 793.39C611.119 789.161 618.702 785.022 627.233 780.278C642.752 771.57 665.706 758.954 679.663 748.581C671.476 747.772 649.222 746.691 642.749 745.042C631.949 758.772 620.266 771.993 609.172 785.497C606.97 788.179 604.68 790.848 602.32 793.39ZM638.041 664.306C639.347 679.597 641.183 694.845 642.527 710.112C643.425 720.313 643.915 730.846 644.595 741.096C658.153 742.068 672.387 742.675 685.82 743.922C680.503 734.131 642.823 667.31 638.041 664.306ZM208.907 356.424C217.036 354.714 229.855 354.365 238.374 353.857L251.064 353.28C256.098 347.814 267.75 336.707 271.622 331.763C264.433 330.368 247.346 327.166 240.716 324.216C231.895 333.147 216.2 347.4 208.907 356.424ZM663.664 599.218C640.983 595.031 617.64 582.195 599.542 568.269C602.462 573.913 605.756 581.793 608.443 587.721C613.812 600.202 619.271 612.644 624.817 625.048C626.405 628.635 631.233 640.195 632.871 642.986C633.527 644.595 633.839 645.819 635.099 646.995C638.291 643.251 644.761 631.369 647.429 626.681C652.621 617.399 658.034 608.242 663.664 599.218ZM439.297 781.884C430.57 770.181 420.118 756.234 410.746 745.143C399.857 746.828 381.175 748.585 369.721 749.619C377.025 754.101 385.023 757.611 392.409 761.934C406.144 769.973 420.806 776.705 434.644 784.437C438.614 786.347 443.842 789.568 447.435 791.959C444.821 789.109 441.749 784.985 439.297 781.884ZM151.236 518.297C154.673 514.505 158.13 510.729 161.606 506.97C169.884 497.905 178.139 488.83 186.339 479.698C192.429 472.915 198.39 465.505 205.055 459.317C202.368 444.979 202.079 431.212 201.494 416.713C197.548 421.753 192.384 431.551 188.919 437.362C175.319 460.172 164.992 481.06 155.364 505.693C153.824 509.923 152.278 513.906 151.236 518.297ZM159.027 624.941C167.067 601.657 176.867 578.506 186.14 555.674C190.141 545.823 194.828 536.252 198.622 526.257C183.736 531.972 167.631 539.242 152.331 545.288C149.966 561.199 152.639 604.463 154.75 620.825C155.092 625.073 155.586 628.71 156.204 632.936L159.027 624.941ZM806.01 325.361C798.684 327.438 788.47 330.574 781.176 331.86C789.626 338.798 795.124 343.78 802.836 351.565C809.046 352.242 815.263 352.868 821.484 353.443C828.201 354.01 836.306 354.904 842.977 355.96C838.692 351.207 810.915 325.925 806.01 325.361ZM269.267 678.75C273.443 679.255 281.147 679.802 284.726 680.408C296.653 681.259 317.793 683.764 328.826 683.465C324.815 667.048 322.747 648.6 320.041 631.855C319.098 626.025 317.571 611.857 315.915 606.416L288.402 648.732C282.843 657.158 273.761 670.028 269.267 678.75ZM172.032 630.14C187.216 618.629 201.813 603.843 217.904 593.086C214.666 573.066 212.712 549.248 211.258 528.843C205.304 538.963 170.681 622.315 169.533 632.004C170.605 631.459 170.205 631.772 170.82 631.189L172.032 630.14ZM686.21 635.091C683.873 629.828 673.375 601.961 669.523 600.417C669.052 600.229 668.838 600.215 668.37 600.137C662.448 609.727 656.722 619.437 651.198 629.261C647.907 635.074 643.563 643.312 640.102 648.777C645.162 647.495 650.203 646.139 655.224 644.709C665.393 641.682 676.217 638.582 686.21 635.091ZM878.505 630.856L880.095 631.971L880.603 631.583C877.788 619.918 846.526 539.302 840.542 531.417C838.854 553.068 839.184 570.82 835.757 593.031L878.505 630.856ZM529.735 714.237C530.802 710.816 538.393 696.699 540.402 692.063C550.262 669.767 559.978 647.409 569.552 624.989C576.899 607.379 584.739 589.966 587.937 571.064C588.042 569.927 588.056 568.844 588.092 567.704L587.508 567.4L586.043 568.988C581.926 576.461 575.549 585.731 570.945 593.193L546.173 634.002C542.918 639.318 529.362 660.938 528.845 665.501C527.532 677.118 527.003 702.854 528.129 714.438L528.319 716.096C528.766 715.513 529.308 714.839 529.735 714.237ZM896.502 510.62C887.88 488.162 879.104 467.874 867.537 446.732C861.304 435.338 854.125 425.185 847.841 414.286C847.62 426.669 846.18 443.485 844.595 455.812C858.787 474.848 879.002 494.584 894.379 512.776C895.253 514.167 897.85 516.918 899.054 518.274L896.502 510.62ZM782.701 680.103C772.751 666.031 763.143 650.998 753.319 636.854C748.923 630.527 738.036 612.07 733.841 608.376C732.594 614.443 731.877 621.16 731.398 627.36C729.989 645.654 727.521 663.822 725.727 682.066C739.512 682.02 758.642 681.981 772.214 680.635L782.701 680.103ZM628.693 645.6C621.56 628.865 614.268 612.198 606.818 595.603C602.975 586.878 597.427 573.18 593.061 565.044C591.73 581.85 585.369 599.063 578.872 614.592C592.062 622.768 604.763 631.974 617.785 640.429C621.034 642.538 624.009 644.722 627.476 646.481L628.718 647.704L629.335 647.635C629.083 646.581 629.114 646.605 628.693 645.6ZM673.863 767.324C653.531 779.007 626.396 795.168 605.665 804.99C605.56 818.651 606.826 833.085 607.766 846.758C608.357 855.357 608.608 865.661 609.82 874.065C615.273 864.399 621.381 855.122 626.95 845.556C640.381 822.487 654.178 799.766 669.074 777.61C671.004 774.74 672.984 771.737 674.729 768.753L676.079 766.57L675.763 766.123L673.863 767.324ZM759.235 322.133C788.513 318.774 827.777 311.909 846.315 287.324C847.427 285.848 849.244 283.764 849.032 281.889C832.886 285.566 816.713 292.238 800.813 297.155C795.268 298.869 784.59 301.67 779.871 303.754C777.451 304.823 759.864 320.263 759.139 321.794L759.235 322.133ZM447.908 571.479C425.262 587.194 412.108 592.838 384.956 599.465C394.848 613.524 407.131 632.745 417.286 645.812C426.377 623.269 437.695 601.157 447.107 578.709C448.06 576.437 449.407 573.427 450.669 571.363L450.959 569.632L450.38 569.422L447.908 571.479ZM401.202 645.238C404.744 646.031 409.04 646.88 412.469 647.858C406.986 639.626 384.807 605.032 378.786 600.163C373.972 611.814 368.934 624.656 364.072 636.091C375.104 639.08 391.391 642.106 401.202 645.238ZM200.93 721.743C202.775 709.89 218.152 612.683 217.317 608.577C208.872 615.396 200.51 622.317 192.23 629.336C187.357 633.414 180.566 638.791 176.158 643.059C179.701 661.764 187.029 685.868 193.751 703.703C196.047 709.429 198.873 716.011 200.93 721.743ZM492.266 472.176C505.167 462.536 511.336 455.757 528.552 456.27C542.604 459.199 546.578 462.602 557.838 471.532C548.778 458.171 538.388 449.398 521.292 451.344C506.152 455.045 501.793 459.969 492.266 472.176ZM632.447 667.808C625.412 690.909 619.689 714.124 613.492 737.481C609.634 752.025 601.946 774.989 599.966 789.134C609.728 778.646 618.824 766.201 628.292 755.283C632.2 750.777 635.767 745.904 640.043 741.716C638.745 717.415 636.688 693.161 633.877 668.99C633.848 667.566 633.807 667.3 633.529 665.899L633.102 665.983L632.447 667.808ZM795.943 791.755C799.994 787.361 806.158 775.328 809.126 769.568C817.101 754.531 824.679 739.286 831.851 723.85C820.17 712.106 805.974 703.014 794.867 692.549C794.588 715.261 794.69 737.975 795.174 760.684C795.344 770.457 795.995 782.25 795.943 791.755ZM373.348 601.404C364.231 601.873 337.537 603.146 329.221 601.335C340.057 612.274 349.664 622.932 360.122 634.02L364.26 623.904C367.174 616.805 370.804 608.536 373.348 601.404ZM875.369 149.417C867.655 165.953 860.83 182.804 852.8 199.223C841.841 221.821 828.736 243.314 813.665 263.405C804.128 276.359 795.102 285.269 785.69 297.145C815.598 285.754 846.319 248.292 859.054 219.297C866.87 201.505 871.802 182.61 875.332 163.52C875.985 159.991 877.604 151.893 877.704 148.594C877.992 147.217 878.4 146.123 877.98 144.823C876.596 145.919 876.072 147.734 875.369 149.417ZM848.982 720.763C851.892 714.127 854.617 707.411 857.154 700.623C864.208 681.73 869.237 664.201 875.641 645.315L851.639 624.093C846.78 619.782 839.23 612.759 834.036 609.405L845.086 690.658C846.278 699.885 848.22 711.819 848.982 720.763ZM681.086 845.636C682.727 823.733 685.403 797.099 685.215 775.609L684.892 775.412C677.593 786.252 621.059 872.462 621.834 877.717L621.944 877.785C641.935 867.586 661.657 856.866 681.086 845.636ZM367.443 844.946C387.584 856.06 407.838 866.967 428.205 877.661C428.348 875.733 417.378 858.941 415.553 855.961C405.168 839.014 394.897 821.999 384.739 804.916C380.966 798.508 371.617 780.999 367.231 776.226C366.373 798.322 367.154 822.757 367.443 844.946ZM523.328 732.251C515.494 739.05 461.614 788.708 460.025 792.441L460.087 793.01C478.385 788.199 496.876 784.05 515.103 778.916C517.902 778.128 520.816 777.332 523.632 776.643C523.58 767.624 523.596 758.605 523.685 749.588C523.709 746.172 523.919 734.911 523.328 732.251ZM352.747 722.724C355.766 728.596 358.86 734.429 362.026 740.224C376.724 717.898 389.352 693.175 403.187 670.249C405.116 667.051 407.19 663.33 408.849 660.009L408.556 659.542C395.204 665.013 381.77 670.278 368.256 675.335C357.395 679.471 346.024 684.022 334.939 687.287C340.07 698.929 346.736 711.45 352.747 722.724ZM528.799 840.48C540.737 832.315 552.747 824.729 564.897 816.914C572.451 811.875 580.846 806.149 588.782 801.735C571.474 796.004 554.428 789.513 536.954 784.283C534.177 783.452 531.191 782.655 528.464 781.718C528.566 800.522 529.192 821.823 528.799 840.48ZM445.226 803.115C421.566 793.413 398.618 777.852 376.271 766.963C380.614 775.02 439.181 873.165 440.601 874.079C441.702 873.115 441.5 871.228 441.535 869.752L445.226 803.115ZM458.639 797.883C467.257 804.681 477.083 810.651 486.016 817.064L509.772 832.785C513.885 835.503 519.609 839.523 523.812 841.788L523.78 799.336C523.743 795.897 523.788 784.759 523.266 781.937L523.031 781.732C501.907 786.257 479.6 792.355 458.639 797.883ZM455.807 826.129C454.709 841.225 453.914 856.343 453.425 871.471C453.233 876.796 452.631 886.486 452.949 891.565C470.653 906.306 488.583 920.775 506.733 934.964L507.626 935.589C507.939 934.274 500.92 921.037 499.922 919.007C490.015 898.508 480.329 877.903 470.868 857.195C466.574 847.967 461.044 834.271 455.807 826.129ZM243.283 772.73C247.704 780.642 252.167 788.159 256.705 795.971L257.168 729.069C257.216 721.485 257.626 700.087 256.545 693.388C244.23 702.033 230.662 713.847 219.304 724.057C226.48 740.672 234.482 756.917 243.283 772.73ZM595.073 824.022C594.521 825.154 591.395 831.561 591.131 832.387C588.023 842.095 545.118 931.151 545.606 933.375C546.763 932.853 546.905 932.876 547.821 932.03C564.227 918.608 582.36 903.533 599.624 891.224C598.063 876.728 597.785 861.765 596.908 847.22C596.588 841.901 596.18 829.026 595.073 824.022ZM531.99 853.114C531.93 863.882 530.654 926.362 532.494 931.634C550.595 893.698 567.215 858.341 584.243 819.823C584.108 819.544 583.973 819.264 583.838 818.985C567.357 828.973 547.855 842.006 531.99 853.114ZM520.147 854.594C510.688 847.987 500.484 841.694 490.804 835.351C483.311 830.441 475.56 824.984 467.912 820.476C472.353 832.232 513.848 924.868 519.131 930.143L519.554 929.627C520.628 917.625 520.364 900.847 520.315 888.578C520.273 878.287 520.687 864.483 520.147 854.594ZM172.931 144.575C173.295 153.662 176 164.451 177.74 173.435C184.233 206.986 196.526 237.254 219.016 263.355C235.856 282.898 237.91 287.451 262.726 294.122C232.026 259.198 214.186 233.847 193.756 191.197C189.434 182.217 185.387 173.107 181.621 163.878C179.551 158.939 175.537 148.742 172.931 144.575ZM640.688 658.192C646.132 667.911 653.995 680.101 660.014 689.833C670.005 705.986 679.041 722.713 688.726 738.77C692.263 732.292 695.996 725.129 699.728 718.822C705.041 709.595 715.037 695.185 718.931 686.403C691.759 678.376 666.914 668.428 640.688 658.192Z" fill="#C1C8D9"/>
<path d="M357.722 404.778C369.09 405.243 396.872 409.074 407.652 412.233C406.409 415.099 405.849 416.912 404.946 419.884C408.212 431.135 414.821 435.415 425.754 429.979C428.655 426.156 429.248 424.328 430.312 419.785C435.068 421.791 439.201 423.931 443.781 426.273C443.412 439.07 442.287 445.9 435.479 456.96C431.177 463.101 424.304 468.813 417.579 472.098C407.565 476.96 396.023 477.61 385.527 473.902C373.544 469.601 363.767 460.707 358.356 449.183C351.543 434.626 352.417 419.583 357.722 404.778Z" fill="#FF7930"/>
<path d="M328.23 403.62L335.531 403.87C330.691 431.91 332.278 455.928 354.168 477.328C388.996 511.376 449.215 495.85 456.931 445.935C457.46 442.508 456.655 438.036 459.06 435.429C459.099 435.648 459.137 435.868 459.176 436.086C458.7 438.032 461.142 442.786 462.149 445.131C465.638 462.024 460.481 471.933 448.412 483.65C400.248 530.406 322.533 491.478 324.787 426.268C324.918 422.487 325.673 406.075 328.23 403.62Z" fill="#B1B7C7"/>
<path d="M299.034 402.722C299.274 402.762 302.739 403.476 302.716 403.721C300.19 431.045 299.959 452.19 313.335 477.533C325.077 499.67 345.159 516.212 369.135 523.495C387.342 529.061 406.488 529.773 424.437 522.57C432.529 519.323 440.311 514.279 447.998 510.16L448.21 510.738L447.206 512.656C430.525 534.372 391.006 534.782 367.203 527.981C343.531 521.217 321.092 502.1 309.476 480.544C297.329 458.004 291.886 427.666 299.034 402.722Z" fill="#B1B7C7"/>
<path d="M240.764 407.122C246.634 406.938 255.05 405.972 261.13 405.485C259.566 412.518 257.309 419.267 255.861 426.636C250.136 455.778 253.088 476.905 259.429 505.069L258.522 505.721C243.238 475.248 237.072 441.013 240.764 407.122Z" fill="#B1B7C7"/>
<path d="M259.429 505.07C259.868 506.484 260.228 506.706 259.824 507.798C258.973 506.854 259.02 506.897 258.522 505.721L259.429 505.07Z" fill="#5A585B" fill-opacity="0.94902"/>
<path d="M694.981 404.164L696.032 404.749C698.935 410.534 699.623 426.023 698.978 432.498C697.615 445.649 691.047 457.708 680.736 465.985C659.818 482.787 633.49 478.771 617.032 458.023C608.753 445.72 607.534 437.038 608.119 422.407C610.857 421.128 615.97 419.424 618.971 418.329C620.911 423.281 622.483 427.002 627.686 429.553C631.147 431.218 635.144 431.371 638.722 429.976C647.205 426.637 647.936 418.499 644.796 410.982C661.016 407.963 678.533 405.992 694.981 404.164Z" fill="#FF7930"/>
<path d="M714.588 403.033C718.446 402.813 722.289 402.862 726.152 402.871C730.921 424.282 728.299 450.474 716.445 469.057C705.369 486.421 689.674 498.731 669.319 503.252C651.153 507.289 630.572 504.379 614.77 494.296C603.408 486.853 590.667 474.489 587.61 460.735C586.037 453.084 587.792 446.684 590.199 439.525C596.28 473.983 624.667 498.56 660.347 494.911C703.064 490.54 728.802 442.284 714.588 403.033Z" fill="#B1B7C7"/>
<path d="M779.631 401.831C789.682 402.824 806.782 404.19 810.798 415.916C812.478 421.513 811.987 427.986 811.81 433.724C811.007 459.828 803.777 483.918 792.614 507.328L787.125 517.661C787.522 515.379 788.124 513.196 788.797 511.004C796.86 484.745 800.293 456.412 796.224 429.135C795.157 421.98 792.592 413.515 787.706 407.991C786.476 406.601 781.377 403.098 779.631 401.831Z" fill="#B1B7C7"/>
<path d="M501.267 506.04C519.174 505.184 509.409 525.748 505.911 534.803C500.482 527.647 497.779 523.908 494.887 515.482C496.321 510.49 496.911 508.784 501.267 506.04Z" fill="#B1B7C7"/>
<path d="M545.775 505.474C562.216 508.244 551.482 524.954 546.593 532.924C546.399 533.228 545.776 533.837 545.5 534.128L544.684 533.945C541.356 528.622 538.202 517.361 540.113 511.166C541.064 508.08 543.027 506.83 545.775 505.474Z" fill="#B1B7C7"/>
<path d="M842.562 164.702C842.232 168.171 832.856 180.874 830.301 184.38C803.659 221.126 771.91 253.884 736.016 281.663C709.717 277.756 677.827 274.513 651.297 271.639C646.753 271.269 642.442 270.614 637.683 270.287C725.421 254.541 777.941 226.766 842.562 164.702Z" fill="#7A787A" fill-opacity="0.01"/>
<path d="M769.181 707.208L769.531 707.859C762.456 722.111 750.603 739.386 741.721 753.091C726.48 776.661 711.024 800.091 695.354 823.38L695.006 823.161C695.761 799.184 697.368 775.242 699.827 751.38C722.467 737.702 746.788 721.667 769.181 707.208Z" fill="#5A585B" fill-opacity="0.01"/>
<path d="M567.739 526.91C569.306 528.488 574.894 538.759 576.704 541.557C580.182 546.936 583.32 551.136 587.188 556.248C572.936 581.558 556.909 605.046 541.889 629.838C539.205 634.104 536.86 637.786 533.889 641.888C543.91 603.201 555.199 564.855 567.739 526.91Z" fill="#FF7930"/>
<path d="M483.191 527.88C486.021 530.541 514.625 629.871 517.917 642.744L509.75 629.386C503.563 620.178 497.202 609.748 491.164 600.293C481.983 586.167 473.031 571.893 464.31 557.479C471.302 549.061 477.6 537.537 483.191 527.88Z" fill="#FF7930"/>
<path d="M747.501 402.341L754.775 402.026C758.176 424.771 758.668 442.763 751.114 464.918C731.616 522.097 660.623 553.783 608.247 518.388C604.868 515.495 600.557 508.738 599.169 504.583C607.841 511.229 615.965 516.849 626.24 520.937C663.127 535.617 706.658 520.13 730.227 489.283C749.307 464.311 752.362 434.368 747.801 404.16C747.71 403.552 747.61 402.946 747.501 402.341Z" fill="#B1B7C7"/>
<path d="M261.409 576.45C279.642 588.285 290.489 592.701 311.077 598.734C300.026 602.237 289.085 606.081 278.271 610.258C266.221 614.092 254.439 619.665 241.781 622.971C248.081 610.535 256.194 589.679 261.409 576.45Z" fill="#D2D3D5" fill-opacity="0.01"/>
<path d="M786.836 577.882C787.427 578.419 803.491 618.469 804.993 622.16C793.425 617.877 781.812 613.716 770.155 609.68C760.145 605.91 749.438 602.867 739.655 598.82C759.232 592.113 768.761 587.905 786.836 577.882Z" fill="#F8F6F7" fill-opacity="0.01"/>
<path d="M287.825 334.532C296.814 336.243 307.015 336.73 316.226 337.709C312.454 341.162 301.921 351.881 297.262 352.032C287.57 352.25 277.881 352.597 268.199 353.071C274.682 346.544 280.72 340.398 287.825 334.532Z" fill="#FD8D42"/>
<path d="M758.872 329.362C763.154 331.053 778.288 345.651 782.338 349.573C773.716 348.872 765.438 348.812 756.798 348.715C748.687 348.692 740.064 348.543 732.054 349.719C742.099 342.631 749.51 337.393 758.872 329.362Z" fill="#FD8D42"/>
<path d="M599.542 568.269C617.64 582.195 640.983 595.031 663.664 599.218C658.035 608.242 652.621 617.399 647.429 626.681C644.762 631.37 638.291 643.251 635.099 646.995C633.839 645.819 633.527 644.595 632.871 642.986L633.781 642.707L634.872 643.699C636.981 642.192 648.895 620.562 651.501 616.395C652.553 614.71 652.033 612.351 654.242 609.973C656.133 607.934 660.496 602.823 660.824 600.182C647.205 597.723 632.094 590.752 619.781 584.477C616.03 582.566 611.223 578.66 607.341 577.514C607.812 580.273 608.726 583.267 609.522 585.972L609.721 586.634L608.443 587.721C605.756 581.793 602.462 573.913 599.542 568.269Z" fill="#F8F6F7" fill-opacity="0.0117647"/>
<path d="M206.787 163.736C212.451 168.53 220.057 174.744 225.223 179.819C222.684 179.573 222.495 179.984 220.276 179.947L219.604 179.238C219.22 179.342 218.586 179.475 218.265 179.646C217.277 178.714 208.763 166.24 206.787 163.736Z" fill="#D2D3D5" fill-opacity="0.0117647"/>
<path d="M155.364 505.693C160.698 507.863 158.234 503.556 161.606 506.97C158.13 510.729 154.673 514.505 151.236 518.297C152.278 513.906 153.824 509.923 155.364 505.693Z" fill="#D2D3D5" fill-opacity="0.0117647"/>
<path d="M439.297 781.884C441.749 784.985 444.821 789.109 447.435 791.959C443.842 789.568 438.614 786.347 434.644 784.437C436.483 783.683 437.299 782.712 439.297 781.884Z" fill="#5A585B" fill-opacity="0.0117647"/>
<path d="M882.906 518.868C886.075 522.521 889.283 526.14 892.53 529.724C889.226 528.186 885.894 526.713 882.534 525.302C884.141 523.601 883.888 524.499 884.073 522.702C882.533 520.913 882.308 520.976 882.906 518.868Z" fill="#A3A3A3" fill-opacity="0.0156863"/>
<path d="M154.75 620.825L156.165 620.793C157.843 623.553 155.472 622.92 157.17 625.935L157.506 625.826C157.517 625.644 157.565 624.625 157.597 624.478C158.612 624.425 158.127 624.299 159.027 624.941L156.204 632.936C155.586 628.71 155.092 625.073 154.75 620.825Z" fill="#7A787A" fill-opacity="0.0117647"/>
<path d="M598.24 505.76L599.169 504.583C600.557 508.738 604.868 515.495 608.247 518.388L606.814 519.934C603.877 515.347 600.683 510.604 598.24 505.76Z" fill="#F8F6F7" fill-opacity="0.0313726"/>
<path d="M896.502 510.62L899.054 518.274C897.85 516.918 895.253 514.167 894.379 512.776C895.142 511.416 895.185 511.515 896.502 510.62Z" fill="#A3A3A3" fill-opacity="0.0313726"/>
<path d="M875.369 149.417C876.071 147.734 876.596 145.919 877.98 144.823C878.4 146.123 877.992 147.217 877.704 148.594L876.368 149.669L875.369 149.417Z" fill="#F8F6F7" fill-opacity="0.0156863"/>
<path d="M586.043 568.988L587.508 567.4L588.091 567.704C588.056 568.844 588.042 569.927 587.936 571.064C587.463 570.331 586.676 569.629 586.043 568.988Z" fill="#F8F6F7" fill-opacity="0.0235294"/>
<path d="M519.485 173.504L521.676 170.044L522.319 170.042L522.46 172.41L519.485 173.504Z" fill="#F8F6F7" fill-opacity="0.0196078"/>
<path d="M518.45 717.017L519.199 719.101L518.862 719.608C518.052 719.109 517.295 718.689 516.556 718.093L518.45 717.017Z" fill="#F8F6F7" fill-opacity="0.0470588"/>
<path d="M632.447 667.808L633.102 665.983L633.529 665.899C633.807 667.3 633.848 667.566 633.877 668.99L632.447 667.808Z" fill="#F8F6F7" fill-opacity="0.101961"/>
<path d="M447.908 571.479L450.38 569.422L450.959 569.632L450.669 571.363L447.908 571.479Z" fill="#F8F6F7" fill-opacity="0.0196078"/>
<path d="M331.755 677.039C333.851 677.037 332.958 676.742 334.604 677.678C333.297 679.099 333.871 679.051 332.588 679.171L331.755 677.039Z" fill="#F8F6F7" fill-opacity="0.0156863"/>
<path d="M532.318 719.14L535.48 718.313C534.154 719.337 533.217 720.475 531.867 720.55L532.318 719.14Z" fill="#F8F6F7" fill-opacity="0.027451"/>
<path d="M716.539 679.42L716.853 680.682C715.516 680.97 715.092 680.541 713.57 680.043L716.539 679.42Z" fill="#F8F6F7" fill-opacity="0.0117647"/>
<path d="M673.863 767.323L675.763 766.123L676.079 766.57L674.729 768.753L673.863 767.323Z" fill="#F8F6F7" fill-opacity="0.027451"/>
<path d="M627.476 646.481L628.693 645.6C629.114 646.605 629.083 646.581 629.335 647.635L628.718 647.704L627.476 646.481Z" fill="#F8F6F7" fill-opacity="0.0313726"/>
<path d="M528.129 714.438L529.735 714.237C529.308 714.839 528.766 715.513 528.319 716.096L528.129 714.438Z" fill="#F8F6F7" fill-opacity="0.0156863"/>
</g>
</g>
<defs>
<clipPath id="clip0_3_2">
<rect width="1051" height="1051" fill="white"/>
</clipPath>
</defs>
</svg>
