<?xml version="1.0" encoding="utf-8" ?><svg xmlns="http://www.w3.org/2000/svg" xmlns:xlink="http://www.w3.org/1999/xlink" width="1024" height="1024" viewBox="0 0 1024 1024"><path fill="#073354" d="M563.735 992.807C546.164 996.401 528.278 998.234 510.343 998.277C482.513 998.38 454.906 993.324 428.919 983.367C410.144 976.097 388.54 963.322 370.962 953.368C347.161 940.127 323.493 926.646 299.964 912.928L213.701 863.2C194.827 852.289 173.868 840.657 155.891 828.619C144.173 820.856 133.239 811.972 123.243 802.091C83.1652 762.462 60.2541 711.056 56.4705 655.041C55.1051 634.826 55.5155 614.867 55.8126 594.631C55.8891 582.145 55.8992 569.659 55.8428 557.173L55.6313 397.569C55.5555 380.919 56.2097 363.944 58.8245 347.475C66.4573 300.321 88.5891 256.715 122.144 222.718C133.321 211.627 145.58 201.684 158.74 193.038C176.721 181.017 197.97 169.805 216.895 158.869C248.274 140.384 279.83 122.201 311.557 104.321L371.523 70.2184C388.586 60.5159 406.353 49.9321 424.641 42.761C451.352 32.2408 479.771 26.7219 508.478 26.4795C538.713 26.351 566.099 30.1705 594.58 40.8195C616.584 49.0473 636.52 61.2986 656.82 72.9974L714.272 105.855C746.16 123.888 777.9 142.182 809.487 160.737C830.257 172.763 851.679 184.375 871.551 197.826C882.802 205.45 893.318 214.105 902.963 223.68C947.027 267.515 968.545 325.339 968.748 387.009C969.369 402.373 968.951 419.655 968.983 435.204L968.968 533.816L969.018 604.418C969.052 623.245 969.746 642.045 967.986 660.779C963.365 710.078 942.841 756.537 909.51 793.153C898.942 804.661 887.141 814.973 874.319 823.901C856.217 836.676 836.717 847.43 817.641 858.679C788.441 876.105 759.076 893.251 729.549 910.116L664.358 947.592C628.28 968.337 604.247 982.798 563.735 992.807Z"/><defs><linearGradient id="gradient_0" gradientUnits="userSpaceOnUse" x1="514.81531" y1="997.03864" x2="509.20779" y2="26.961226"><stop offset="0" stop-color="#19627A"/><stop offset="1" stop-color="#31849A"/></linearGradient></defs><path fill="url(#gradient_0)" d="M563.735 992.807C546.164 996.401 528.278 998.234 510.343 998.277C482.513 998.38 454.906 993.324 428.919 983.367C410.144 976.097 388.54 963.322 370.962 953.368C347.161 940.127 323.493 926.646 299.964 912.928L213.701 863.2C194.827 852.289 173.868 840.657 155.891 828.619C144.173 820.856 133.239 811.972 123.243 802.091C83.1652 762.462 60.2541 711.056 56.4705 655.041C55.1051 634.826 55.5155 614.867 55.8126 594.631C55.8891 582.145 55.8992 569.659 55.8428 557.173L55.6313 397.569C55.5555 380.919 56.2097 363.944 58.8245 347.475C66.4573 300.321 88.5891 256.715 122.144 222.718C133.321 211.627 145.58 201.684 158.74 193.038C176.721 181.017 197.97 169.805 216.895 158.869C248.274 140.384 279.83 122.201 311.557 104.321L371.523 70.2184C388.586 60.5159 406.353 49.9321 424.641 42.761C451.352 32.2408 479.771 26.7219 508.478 26.4795C538.713 26.351 566.099 30.1705 594.58 40.8195C616.584 49.0473 636.52 61.2986 656.82 72.9974L714.272 105.855C746.16 123.888 777.9 142.182 809.487 160.737C830.257 172.763 851.679 184.375 871.551 197.826C882.802 205.45 893.318 214.105 902.963 223.68C947.027 267.515 968.545 325.339 968.748 387.009L757.84 171.991L756.755 171.281C754.718 172.695 753.806 178.56 752.944 181.012C736.437 227.964 698.173 248.647 655.574 267.454C641.922 259.522 621.564 251.827 606.477 247.452C546.737 230.377 483.512 229.625 423.382 245.275C405.348 250.043 381.144 258.986 364.269 266.778C318.042 243.902 283.649 227.71 265.788 174.26C264.924 171.703 264.134 169.122 263.421 166.52C257.938 184.135 263.571 225.307 268.697 243.903C270.931 252.165 274.039 260.167 277.968 267.771C284.987 281.128 293.629 290.696 305.705 299.545C280.031 313.605 255.542 333.097 244.442 361.015C254.4 357.404 268.781 352.199 279.128 349.952C263.607 371.666 248.843 397.38 244.04 423.972C226.855 427.677 222.132 439.023 224.798 455.732C225.93 462.829 231.544 467.764 237.414 471.403C232.591 495.538 226.474 536.411 233.197 560.381L237.23 554.425C232.238 600.65 234.098 640.121 252.287 683.824C255.983 692.704 261.22 703.93 266.762 711.709C267.34 702.759 268.53 693.775 270.828 685.09C280.62 710.538 293.803 733.699 313.58 752.814C313.314 748.864 312.984 744.779 312.858 740.836C317.473 744.143 325.043 754.684 329.255 759.238C336.66 767.244 343.972 774.673 351.777 782.277C409.348 837.912 466.432 894.048 523.024 950.678C529.399 957.024 561.834 987.35 563.735 992.807Z"/><path fill="#15526A" d="M757.84 171.991L968.748 387.009C969.369 402.373 968.951 419.655 968.983 435.204L968.968 533.816L969.018 604.418C969.052 623.245 969.746 642.045 967.986 660.779C963.365 710.078 942.841 756.537 909.51 793.153C898.942 804.661 887.141 814.973 874.319 823.901C856.217 836.676 836.717 847.43 817.641 858.679C788.441 876.105 759.076 893.251 729.549 910.116L664.358 947.592C628.28 968.337 604.247 982.798 563.735 992.807C561.834 987.35 529.399 957.024 523.024 950.678C466.432 894.048 409.348 837.912 351.777 782.277C343.972 774.673 336.66 767.244 329.255 759.238C325.043 754.684 317.473 744.143 312.858 740.836C312.018 738.29 312.611 729.323 312.815 726.473C318.489 735.013 325.657 746.331 332.079 754.036C343.289 767.487 357.77 780.491 370.573 792.649C368.791 784.447 366.425 774.949 365.143 766.78C377.357 779.927 389.016 793.741 404.523 803.235C409.051 806.007 422.502 816.177 425.457 806.834C426.551 803.374 421.722 796.935 419.77 793.896C433.065 806.135 457.652 825.307 474.918 831.079L479.83 828.917C487.368 838.039 496.287 848.835 501.898 859.246C505.61 866.134 507.803 874.279 512.159 881.093C522.73 856.843 527.698 849.767 543.669 828.621C548.745 831.714 552.247 831.058 557.647 828.415C569.838 822.448 581.018 814.689 591.122 805.642C593.012 803.949 594.888 802.33 597.077 801.027C597.829 802.653 599.447 806.321 601.074 806.809C606.653 808.48 617.272 801.713 621.339 799.071C638.097 788.372 652.283 774.101 662.883 757.281C661.427 764.797 660.168 775.772 659.956 783.292C684.222 760.095 692.903 753.424 711.907 724.785C712.159 732.867 712.013 740.956 711.468 749.024C727.833 731.191 746.89 703.464 753.669 680.307C755.236 689.572 755.327 696.846 754.906 706.053C756.816 706.366 759.046 706.42 761.002 706.524C781.787 657.126 798.146 605.01 784.982 551.123C787.653 553.852 790.385 557.277 792.865 560.245C793.282 552.647 794.325 545.113 794.248 537.496C794.018 514.825 792.374 493.055 785.732 471.312C789.095 470.715 792.327 470.416 794.975 467.79C803.54 459.296 802.925 437.773 795.872 428.597C793.33 425.29 785.674 425.511 781.822 425.505C770.674 392.296 760.976 371.863 738.387 344.91C752.826 349.736 767.136 355.203 781.459 360.422C765.617 333.672 742.894 310.806 714.43 297.709C722.274 292.772 728.257 288.517 734.281 281.174C753.533 257.709 759.485 224.331 759.513 194.603C759.519 187.909 758.485 178.743 757.84 171.991Z"/><path fill="#B2B3B3" d="M731.242 470.491L776.161 470.929C784.248 492.504 786.258 519.372 786.607 542.319C778.677 530.877 773.77 524.198 763.114 514.878C763.114 518.806 765.066 523.648 765.601 527.843C767.569 542.733 766.092 557.876 761.285 572.105C760.298 574.988 759.264 578.244 758.19 581.059C754.173 573.121 749.701 565.421 744.797 557.998C740.23 587.156 731.016 604.432 715.16 628.504C711.728 622.199 708.031 615.004 703.889 609.207C690.67 650.649 679.189 668.83 647.574 699.024C644.548 692.216 641.472 685.43 638.347 678.666C621.362 702.439 605.332 718.597 580.9 735.107C580.178 728.345 579.508 724.025 577.685 717.482C557.053 729.083 526.668 748.833 514.259 768.901C513.831 769.43 513.177 770.108 512.724 770.605L511.605 770.646C508.894 769.084 507.648 766.751 505.783 764.136C510.477 762.145 508.292 760.869 510.033 758.878L511.96 759.802C511.86 745.379 512.978 729.018 511.301 714.941C510.698 709.882 506.542 698.289 504.719 692.748C501.767 683.979 499.067 675.128 496.624 666.204C501.477 674.4 504.629 683.086 507.648 692.067C509.16 696.564 510.557 702.181 512.511 706.398C512.673 694.945 511.905 689.071 511.036 678.078C512.117 674.445 511.944 662.212 511.182 658.362L511.711 658.165C513.208 655.519 514.539 650.533 515.433 647.499C519.369 634.145 527.698 623.018 535.889 611.842C551.59 590.416 560.3 571.506 557.955 544.494C571.607 556.557 593.834 564.969 611.779 566.98C639.97 570.212 668.289 562.104 690.497 544.442C714.316 525.429 727.919 500.666 731.242 470.491Z"/><path fill="#969FA1" d="M758.287 506.329C759.86 509.199 761.469 512.048 763.114 514.878C763.114 518.806 765.066 523.648 765.601 527.843C767.569 542.733 766.092 557.876 761.285 572.105C758.981 570.06 760.203 562.012 760.565 558.808C762.581 540.976 761.04 524.044 758.287 506.329Z"/><path fill="#C6C5C5" d="M505.783 764.136C510.477 762.145 508.292 760.869 510.033 758.878L511.96 759.802C512.214 763.795 512.097 765.458 514.259 768.901C513.831 769.43 513.177 770.108 512.724 770.605L511.605 770.646C508.894 769.084 507.648 766.751 505.783 764.136Z"/><path fill="#969FA1" d="M711.344 532.411C711.629 532.705 711.9 532.942 711.849 533.482C707.983 574.1 688.535 613.339 661.508 643.532C653.206 652.805 641.965 660.589 633.9 669.739L633.349 670.37L633.04 669.961C634.623 664.181 661.696 631.706 667.149 623.84C686.527 595.889 703.362 565.676 711.344 532.411Z"/><path fill="#969FA1" d="M610.253 609.359C610.788 611.825 608.109 618.687 607.125 621.391C595.204 654.15 573.793 691.439 540.357 705.429C540.072 703.911 550.908 692.914 552.65 691.05C574.354 667.823 596.905 638.301 610.253 609.359Z"/><path fill="#969FA1" d="M650.355 594.864L650.795 595.321C651.714 599.704 646.515 617.42 644.69 622.277C634.591 649.166 619.608 670.214 593.755 682.978L593.342 682.596C596.319 678.015 609.385 663.848 613.872 658.328C630.991 637.265 640.166 619.662 650.355 594.864Z"/><path fill="#969FA1" d="M627.29 617.343L627.759 617.818C628.136 620.363 626.742 623.423 626.005 625.837C617.953 652.2 596.622 680.155 571.097 692.405L570.76 691.91C573.686 686.772 586.607 673.07 591.19 667.783C606.089 650.598 616.435 637.174 627.29 617.343Z"/><path fill="#969FA1" d="M574.798 637.351L575.313 637.922C573.602 654.212 553.047 683.065 543.094 696.215C539.574 700.867 531.835 707.159 527.012 710.904L526.759 710.67C527.189 706.525 568.649 646.169 574.798 637.351Z"/><path fill="#DCDCDB" d="M246.272 470.999C261.804 470.872 277.337 470.867 292.869 470.983C300.495 528.172 343.948 569.93 402.717 568.432C431.473 565.415 443.256 560.98 466.054 542.937C462.484 604.75 502.102 610.693 511.182 658.362C511.944 662.212 512.117 674.445 511.036 678.078C511.905 689.071 512.673 694.945 512.511 706.398C510.557 702.181 509.16 696.564 507.648 692.067C504.629 683.086 501.477 674.4 496.624 666.204C499.067 675.128 501.767 683.979 504.719 692.748C506.542 698.289 510.698 709.882 511.301 714.941C512.978 729.018 511.86 745.379 511.96 759.802L510.033 758.878C508.292 760.869 510.477 762.145 505.783 764.136C498.142 755.351 484.981 744.433 476.106 736.89C467.79 729.822 459.797 722.609 451.569 715.504C448.899 722.76 445.67 727.835 443.484 735.967C420.463 717.32 403.489 703.66 384.176 680.319C380.239 687.807 378.84 692.253 376.594 700.226C347.388 672.433 328.263 646.452 320.677 606.039C316.948 613.4 313.401 620.852 310.041 628.388C294.789 606.695 283.098 579.552 280.792 553.062C275.62 562.219 272.636 572.723 269.519 582.731C260.089 557.828 254.026 534.201 263.156 508.307C254.236 519.89 246.687 530.151 239.001 542.541C238.758 518.498 241.197 494.502 246.272 470.999Z"/><path fill="#C6C5C5" d="M402.717 568.432C431.473 565.415 443.256 560.98 466.054 542.937C462.484 604.75 502.102 610.693 511.182 658.362C511.944 662.212 512.117 674.445 511.036 678.078C507.105 665.19 506.488 656.668 499.503 643.268C493.377 631.515 487.393 623.792 479.919 613.057C468.47 596.613 460.857 580.867 456.054 561.336C448.341 565.209 437.328 568.552 428.805 569.729C423.18 570.506 407.457 571.966 402.717 568.432Z"/><path fill="#C6C5C5" d="M385.354 602.866C387.612 605.429 392.629 616.81 394.448 620.486C397.14 625.942 400.104 631.259 403.33 636.417C415.266 655.354 432.153 673.66 447.277 690.073C443.027 688.771 440.831 687.836 437.096 685.39C406.362 665.264 393.178 637.128 385.354 602.866Z"/><path fill="#C6C5C5" d="M414.601 619.19C417.107 621.215 420.292 627.019 421.936 629.982C436.26 655.785 456.432 677.437 475.181 700.16C472.054 699.939 466.98 696.357 464.462 694.384C446.868 680.593 433.075 662.8 423.617 642.586C419.943 634.734 417.336 627.39 414.601 619.19Z"/><path fill="#C6C5C5" d="M334.668 560.927L335.119 561.339C336.063 563.987 336.453 567.369 336.53 570.17C334.891 568.527 334.815 563.33 334.668 560.927Z"/><path fill="#CF894E" d="M522.978 458.06C522.981 432.02 534.658 405.762 553.049 387.461C572.378 368.254 598.563 357.539 625.812 357.684C654.108 357.796 679.219 369.146 698.929 389.189C718.292 410.605 728.846 435.712 727.29 464.958C725.867 492.498 713.395 518.3 692.697 536.522C672.503 554.364 646.059 563.473 619.161 561.851C591.999 560.222 566.602 547.855 548.571 527.476C540.198 517.917 532.924 506.07 528.784 494.021C525.655 485.806 523.921 475.811 523.235 467.088C522.269 467.122 521.977 467.011 521.014 466.857C521.619 465.612 521.497 460.804 521.726 458.77L522.978 458.06Z"/><defs><linearGradient id="gradient_1" gradientUnits="userSpaceOnUse" x1="619.68518" y1="459.76849" x2="587.36853" y2="365.41504"><stop offset="0" stop-color="#FFA749"/><stop offset="1" stop-color="#FFC368"/></linearGradient></defs><path fill="url(#gradient_1)" d="M522.978 458.06C522.981 432.02 534.658 405.762 553.049 387.461C572.378 368.254 598.563 357.539 625.812 357.684C654.108 357.796 679.219 369.146 698.929 389.189C698.516 390.81 698.379 392.396 697.175 393.407C695.664 392.926 693.25 389.58 691.998 388.253C689.292 385.387 686.165 382.737 682.846 380.612C651.7 360.683 614.64 356.39 581.388 373.436C559.305 384.734 542.638 404.369 535.079 427.994C528.988 447.336 529.049 468.364 533.257 488.078L532.231 488.279L531.496 487.608C529.36 488.622 529.254 491.769 528.784 494.021C525.655 485.806 523.921 475.811 523.235 467.088C522.269 467.122 521.977 467.011 521.014 466.857C521.619 465.612 521.497 460.804 521.726 458.77L522.978 458.06Z"/><path fill="#15526A" d="M522.978 458.06C523.029 460.728 523.003 464.534 523.235 467.088C522.269 467.122 521.977 467.011 521.014 466.857C521.619 465.612 521.497 460.804 521.726 458.77L522.978 458.06Z"/><path fill="#F7B066" d="M533.257 488.078C534.124 490.438 537.798 499.52 537.69 501.34C536.017 499.761 533.161 490.971 532.231 488.279L533.257 488.078Z"/><path fill="#073354" d="M553.962 510.038C529.37 475.456 533.233 428.195 563.114 398.065C592.995 367.936 640.224 363.683 675.007 387.989C676.88 387.409 677.89 387.709 679.677 388.8C719.752 413.271 726.189 466.949 704.255 505.724C691.872 527.24 671.354 542.869 647.321 549.092C624.965 555.236 601.083 552.219 580.956 540.71C567.506 532.918 559.799 524.827 550.487 512.91C551.414 511.927 551.591 512.006 552.897 511.531L553.962 510.038Z"/><path fill="#F7B066" d="M675.007 387.989C676.88 387.409 677.89 387.709 679.677 388.8C719.752 413.271 726.189 466.949 704.255 505.724C691.872 527.24 671.354 542.869 647.321 549.092C624.965 555.236 601.083 552.219 580.956 540.71C567.506 532.918 559.799 524.827 550.487 512.91C551.414 511.927 551.591 512.006 552.897 511.531L553.962 510.038C574.102 538.358 609.131 552.022 643.127 544.818C677.123 537.614 703.6 510.918 710.523 476.863C717.445 442.808 703.493 407.893 675.007 387.989Z"/><path fill="#FEFEFE" d="M588.91 384.627C607.061 375.161 628.227 373.283 647.761 379.405C660.248 383.241 665.924 387.165 675.884 394.881C693.763 409.463 705.199 427.826 707.588 451.097C709.985 473.324 703.361 495.584 689.201 512.884C675.052 529.949 654.678 540.663 632.599 542.65C610.879 544.764 589.224 538.026 572.538 523.962C566.71 519.033 563.118 514.727 558.685 508.628C575.347 521.277 589.483 527.861 611.141 524.908C628.603 522.556 644.406 513.342 655.054 499.305C676.516 470.966 671.115 437.507 647.128 412.779C663.251 411.247 671.108 410.88 687.599 412.675C660.755 402.869 635.499 406.321 609.757 418.182C594.053 425.591 579.468 435.169 566.429 446.636C559.977 452.243 554.125 457.875 548.617 464.436C547.576 465.676 546.661 467.002 545.28 467.622C544.041 464.533 544.496 454.682 544.548 450.872C545.177 442.469 546.993 434.197 549.942 426.303C556.476 408.991 572.111 392.299 588.91 384.627Z"/><path fill="#DCDCDB" d="M588.91 384.627C607.061 375.161 628.227 373.283 647.761 379.405C660.248 383.241 665.924 387.165 675.884 394.881C674.97 396.375 675.575 395.883 674.186 396.602C667.75 396.074 656.113 387.911 648.825 385.39C629.748 378.791 607.01 378.47 588.636 386.986L588.91 384.627Z"/><path fill="#C6C5C5" d="M544.548 450.872C545.177 442.469 546.993 434.197 549.942 426.303C556.476 408.991 572.111 392.299 588.91 384.627L588.636 386.986C555.484 405.781 555.792 427.893 549.242 461.749C547.735 453.258 547.798 456.661 544.548 450.872Z"/><path fill="#F7B066" d="M643.207 413.708C648.186 418.752 650.747 421.744 654.645 427.633C663.454 444.445 667.228 459.394 661.658 478.388C657.141 493.791 644.828 507.223 630.637 514.592C616.515 521.938 600.068 523.424 584.858 518.728C561.464 511.269 552.768 497.726 546.254 475.333C551.448 466.965 554.654 462.156 562.813 456.233C563.349 460.649 563.849 463.834 565.044 468.083C576.893 510.186 640.753 497.813 634.583 453.887C633.428 446.14 629.887 438.946 624.454 433.305C619.944 429.359 616.977 427.782 611.664 424.907C622.715 419.034 631.258 417.063 643.207 413.708Z"/><path fill="#CF894E" d="M643.207 413.708C648.186 418.752 650.747 421.744 654.645 427.633C645.492 430.139 634.162 431.028 624.454 433.305C619.944 429.359 616.977 427.782 611.664 424.907C622.715 419.034 631.258 417.063 643.207 413.708Z"/><path fill="#FEFEFE" d="M586.75 438.465L587.423 438.71C589.891 441.599 587.43 446.795 585.566 449.414C581.894 454.574 578.299 455.384 572.549 456.361C565.91 448.958 581.838 441.076 586.75 438.465Z"/><path fill="#CF894E" d="M324.944 531.566C290.247 496.004 286.314 440.582 315.64 400.476C344.966 360.37 398.973 347.314 443.381 369.596C487.788 391.877 509.605 442.977 494.984 490.461C484.419 524.769 456.555 550.97 421.662 559.405C386.769 567.84 350.014 557.26 324.944 531.566Z"/><path fill="#F7B066" d="M324.944 531.566C290.247 496.004 286.314 440.582 315.64 400.476C344.966 360.37 398.973 347.314 443.381 369.596C487.788 391.877 509.605 442.977 494.984 490.461C493.925 489.524 493.633 489.199 493.72 487.253C494.073 479.392 494.902 472.361 494.773 464.385C494.336 438.412 484.876 410.903 466.061 392.435C449.097 375.783 424.182 363.206 400.044 363.284C345.392 363.46 300.803 409.206 301.987 464.197C302.306 476.971 304.926 489.584 309.72 501.428C312.653 508.752 325.567 527.04 324.944 531.566Z"/><path fill="#073354" d="M349.668 533.452C311.353 508.27 299.034 457.747 321.456 417.754C343.878 377.76 393.408 361.914 434.881 381.464C476.353 401.015 495.649 449.306 479.067 492.052C480.25 492.302 480.09 492.378 481.266 492.033C482.752 493.638 479.373 499.749 478.495 501.515C472.917 512.739 464.72 523.853 454.979 531.802C436.059 547.419 411.643 554.753 387.249 552.144C373.499 550.583 360.316 545.779 348.786 538.127L348.768 537.413C350.149 535.777 349.7 536.244 349.668 533.452Z"/><path fill="#F7B066" d="M479.067 492.052C480.25 492.302 480.09 492.378 481.266 492.033C482.752 493.638 479.373 499.749 478.495 501.515C472.917 512.739 464.72 523.853 454.979 531.802C436.059 547.419 411.643 554.753 387.249 552.144C373.499 550.583 360.316 545.779 348.786 538.127L348.768 537.413C350.149 535.777 349.7 536.244 349.668 533.452C371.714 547.942 399.127 551.69 424.254 543.652C449.38 535.613 469.526 516.647 479.067 492.052Z"/><path fill="#FEFEFE" d="M458.756 514.587C455.651 518.905 452.423 522.518 448.302 525.904C413.568 554.439 361.989 548.872 333.73 514.04C319.567 496.857 312.924 474.692 315.302 452.551C317.546 430.429 328.514 410.114 345.778 396.101C363.24 381.741 385.742 375.003 408.222 377.403C429.027 379.789 447.171 390.28 460.201 406.533C473.783 421.032 478.913 443.446 478.237 462.807C478.162 464.641 478.05 466.474 477.902 468.304C477.005 467.283 472.212 461.957 471.807 461.188C460.784 449.604 446.962 439.064 433.309 430.796C403.339 412.649 376.417 401.131 340.746 409.678C356.668 410.707 361.962 410.859 378.203 413.835C368.932 423.516 362.554 433.543 359.243 446.68C355.045 463.501 357.76 481.302 366.78 496.107C375.307 510.177 389.102 520.256 405.097 524.106C425.555 529.038 441.384 525.092 458.756 514.587Z"/><path fill="#DCDCDB" d="M460.201 406.533C473.783 421.032 478.913 443.446 478.237 462.807C478.162 464.641 478.05 466.474 477.902 468.304C477.005 467.283 472.212 461.957 471.807 461.188C473.621 454.802 467.576 425.751 464.947 418.063C463.789 414.673 460.689 410.335 460.201 406.533Z"/><path fill="#F7B066" d="M381.892 414.829C392.724 418.088 403.345 422.008 413.696 426.568L408.455 429.598C399.778 436.819 393.645 444.823 392.65 456.488C391.914 465.589 394.82 474.61 400.728 481.572C406.853 488.848 415.622 493.386 425.1 494.185C433.555 494.902 441.607 492.333 448.855 488.105C460.424 477.644 461.078 472.012 463.055 457.9C470.029 464.481 472.709 466.492 476.892 475.312C471.566 504.755 447.961 525.268 417.512 522.22C414.775 521.992 411.764 521.796 409.076 521.325C380.432 516.303 359.127 486.413 361.235 457.85C361.843 449.618 363.969 443.457 367.082 435.913C369.998 428.272 376.292 420.645 381.892 414.829Z"/><path fill="#CF894E" d="M463.055 457.9C470.029 464.481 472.709 466.492 476.892 475.312C471.566 504.755 447.961 525.268 417.512 522.22C428.333 520.092 447.571 498.184 448.855 488.105C460.424 477.644 461.078 472.012 463.055 457.9Z"/><path fill="#CF894E" d="M381.892 414.829C392.724 418.088 403.345 422.008 413.696 426.568L408.455 429.598C403.23 425.374 374.181 433.226 367.082 435.913C369.998 428.272 376.292 420.645 381.892 414.829Z"/><path fill="#FEFEFE" d="M426.396 436.254C431.499 435.71 436.098 439.353 436.738 444.445C437.379 449.537 433.824 454.205 428.745 454.942C425.373 455.431 421.999 454.061 419.923 451.358C417.847 448.655 417.392 445.042 418.735 441.91C420.077 438.777 423.007 436.614 426.396 436.254Z"/><path fill="#F7B066" d="M337.016 529.839C341.913 532.023 344.566 534.113 348.768 537.413L348.786 538.127C344.631 535.835 340.652 532.88 337.016 529.839Z"/><path fill="#DCDCDB" d="M253.412 533.517C253.941 556.733 259.869 575.325 270.174 595.906C272.697 588.395 274.876 579.605 276.963 571.871C279.572 578.548 281.366 586.884 283.897 593.507C289.723 608.752 300.153 629.013 310.484 641.53C312.585 635.29 314.928 629.134 317.505 623.075C331.22 664.634 349.196 681.651 379.68 711.405C381.369 704.017 382.871 698.692 385.4 691.667C407.799 714.417 421.097 727.264 446.893 745.827C449.185 739.48 451.554 733.074 454.532 727.02C472.737 742.32 502.174 763.637 511.575 784.752C510.656 790.038 511.97 799.117 512.138 804.738C512.249 808.454 512.111 811.883 511.979 815.598C513.026 820.662 513.937 837.765 512.017 842.813C512.019 844.443 512.13 848.867 511.922 850.256C510.753 853.944 511.201 856.859 510.433 860.294C507.138 852.999 495.907 835.405 490.111 829.713C475.557 815.419 466.863 802.905 455.882 785.908C459.636 800.202 465.351 809.31 470.17 822.407C451.807 810.803 435.952 799.695 420.93 783.763C415.19 777.675 408.161 768.563 402.213 763.285C403.566 770.995 411.039 792.65 413.749 800.362C388.294 783.779 364.617 756.898 353.507 728.611C353.856 737.963 354.089 747.278 355.485 756.541C356.017 760.067 356.415 763.604 356.723 767.156C339.854 752.336 324.308 731.25 314.682 710.948C311.761 704.788 310.352 699.197 307.767 693.327L307.559 692.864C306.295 706.681 305.146 719.324 305.873 733.182C301.371 726.299 296.362 719.568 292.222 712.432C281.195 693.423 273.588 669.847 274.319 647.736C267.539 662.852 266.961 670.629 262.601 685.479C252.341 659.858 246.014 637.81 244.603 610.103C243.239 583.311 243.749 558.977 253.412 533.517Z"/><path fill="#C6C5C5" d="M512.017 842.813C510.594 837.332 509.531 831.12 508.154 825.453C505.583 814.919 502.214 804.595 498.078 794.571C496.602 790.984 489.648 776.692 489.827 773.818C490.541 774.243 490.956 774.397 491.285 775.204C493.142 779.75 497.318 784.095 499.596 788.37C503.155 795.14 506.204 802.163 508.983 809.286C509.89 811.61 510.572 813.524 511.979 815.598C513.026 820.662 513.937 837.765 512.017 842.813Z"/><path fill="#C6C5C5" d="M358.555 717.795C359.234 718.308 372.29 742.178 374.264 745.357C382.727 758.976 397.011 772.265 403.16 786.654C392.484 782.226 367.045 746.653 361.714 735.032C359.989 731.272 359.002 722.2 358.555 717.795Z"/><path fill="#C6C5C5" d="M411.933 758.347C416.872 760.236 453.239 802.022 457.85 808.784C455.757 807.981 452.245 805.438 450.398 804.022C434.29 791.674 423.134 774.827 411.933 758.347Z"/><path fill="#B2B3B3" d="M771.73 534.496C789.564 579.186 779.041 640.52 760.878 683.611C760.719 683.992 760.552 684.369 760.378 684.744C758.21 673.7 755.734 662.72 752.954 651.815C744.813 686.31 738.948 702.447 717.103 730.984C716.833 717.419 715.531 705.715 714.737 692.415C701.249 734.485 695.927 735.77 666.795 766.548C668.562 751.475 668.981 738.379 670.065 723.388C660.94 754.958 639.552 781.558 610.679 797.249C610.372 797.416 610.063 797.579 609.752 797.739C613.084 790.893 623.592 768.952 619.79 761.84C617.998 763.237 610.059 774.74 607.949 777.47C594.283 795.47 576.866 810.28 556.904 820.875C562.503 808.976 565.554 803.712 565.279 790.317C560.612 796.721 555.255 804.342 550.276 810.374C536.725 826.79 522.291 841.6 512.905 861.042C512.589 861.787 512.404 862.049 511.99 862.745L511.235 862.533L510.433 860.294C511.201 856.859 510.753 853.944 511.922 850.256C512.13 848.867 512.019 844.443 512.017 842.813C513.937 837.765 513.026 820.662 511.979 815.598C512.111 811.883 512.249 808.454 512.138 804.738C511.97 799.117 510.656 790.038 511.575 784.752C515.226 780.574 517.618 775.159 520.612 770.491C533.264 750.763 555.447 740.019 573.728 726.438C574.467 732.614 575.136 739.111 576.161 745.223C601.742 730.38 619.389 713.33 637.66 690.18C641.305 697.409 642.65 702.146 644.891 709.841C674.917 681.336 691.506 664.255 705.596 624.197C708.276 629.796 710.919 635.413 713.526 641.046C729.168 621.317 740.826 598.737 747.854 574.56C751.554 580.9 755.1 587.329 758.487 593.841C765.318 575.463 772.341 554.255 771.73 534.496Z"/><path fill="#FEFEFE" d="M510.433 860.294C511.201 856.859 510.753 853.944 511.922 850.256C512.116 854.327 512.274 857.043 512.905 861.042C512.589 861.787 512.404 862.049 511.99 862.745L511.235 862.533L510.433 860.294Z"/><path fill="#969FA1" d="M654.232 709.863L654.806 710.556C654.686 733.951 640.072 754.778 628.977 773.631L628.61 773.266C628.454 771.134 636.722 758.601 638.397 755.738C648.173 739.032 651.826 728.872 654.232 709.863Z"/><path fill="#969FA1" d="M665.535 698.311C667.19 700.471 666.495 709.532 666.396 712.655C664.834 710.301 665.455 701.615 665.535 698.311Z"/><path fill="#15526A" d="M498.032 243.217C534.472 240.122 615.285 253.311 646.341 272.604C632.49 277.463 617.655 284.629 603.472 289.815C574.817 300.292 546.823 310.338 519.239 323.476C516.686 324.721 513.821 325.852 511.186 326.96C482.698 312.903 455.778 304.163 426.177 293.239C409.076 286.928 390.686 279.151 373.664 272.334C408.018 255.246 459.936 245.237 498.032 243.217Z"/><path fill="#969FA1" d="M482.038 291.626C487.723 291.056 493.811 291.349 499.53 291.556C496.977 296.123 493.208 301.372 490.221 305.773C489.004 307.463 489.282 307.636 487.66 308.357C483.933 306.518 476.654 301.698 475.353 297.479C473.976 293.012 478.949 292.316 482.038 291.626Z"/><path fill="#969FA1" d="M524.191 291.473C529.725 291.214 546.973 290 548.905 296.79C548.2 300.019 546.408 300.818 543.745 302.738L535.358 309.111C531.595 303.356 528.023 297.328 524.191 291.473Z"/><path fill="#969FA1" d="M505.898 269.65C510.631 269.335 519.129 268.646 522.781 271.49C524.932 275.996 518.22 280.061 515.083 282.525L511.52 284.916C506.662 281.007 490.828 271.569 505.898 269.65Z"/><path fill="#969FA1" d="M423.347 269.202C427.824 268.397 437.607 268.905 442.365 269.088C437.127 271.64 431.15 275.416 426.093 278.448L421.619 281.181C416.981 277.807 412.875 275.263 408.011 272.259C413.593 270.357 417.487 269.826 423.347 269.202Z"/><path fill="#969FA1" d="M454.105 281.7C456.513 281.761 457.278 281.651 459.502 282.411C460.852 283.737 460.545 282.965 460.569 284.755C458.509 288.742 452.766 292.309 448.989 295.078L444.643 291.728C441.018 289.238 436.77 286.942 432.921 284.749C440.482 282.853 446.409 282.274 454.105 281.7Z"/><path fill="#969FA1" d="M561.558 282.567C573.512 282.08 578.14 281.927 589.506 285.24L581.739 289.888L573.631 295.15C570.853 292.612 561.714 286.523 560.791 284.001L561.558 282.567Z"/><path fill="#969FA1" d="M583.824 270.151C594.361 269.74 606.584 271.656 616.858 274.007C615.251 274.865 613.247 275.714 611.562 276.483C606.84 278.477 602.545 280.304 597.926 282.57C593.235 277.92 588.9 274.378 583.824 270.151Z"/><path fill="#969FA1" d="M485.481 259.295L485.781 259.888C483.865 263.702 476.512 270.824 473.278 274.144L468.128 269.128C465.652 266.739 463.234 264.029 460.889 261.489C469.049 260.385 477.254 259.653 485.481 259.295Z"/><path fill="#969FA1" d="M537.241 259.497C544.864 259.4 555.226 260.493 563.035 261.13C561.227 263.536 559.173 265.656 557.127 267.861L550.779 274.159C546.358 269.188 541.844 264.3 537.241 259.497Z"/><path fill="#DCDCDB" d="M317.528 304.578C325.322 306.823 333.027 309.082 340.603 311.978C375.734 325.407 412.216 336.016 446.754 350.905C467.766 359.964 492.174 369.926 503.397 391.153C507.522 398.954 510.116 406.11 512.5 414.583C512.488 422.503 516.293 443.697 518.165 451.698C511.16 450.98 508.072 450.787 501.143 451.646C500.292 438.59 497.025 425.805 491.509 413.94C479.667 388.685 458.324 369.133 432.129 359.546C406.414 350.511 378.146 352.192 353.683 364.211C328.282 376.625 308.711 398.438 299.114 425.031L252.058 424.922C259.739 398.053 272.227 371.494 290.754 350.391C300.582 339.197 306.732 335.332 321.392 332.827L319.514 331.725C300.998 333.699 282.592 339.632 264.299 343.642C279.808 326.124 294.993 312.695 317.528 304.578Z"/><path fill="#B2B3B3" d="M328.784 331.604C332.639 332.016 335.96 332.245 339.693 333.327L339.524 333.577C335.318 333.433 332.771 333.103 328.583 332.47L328.784 331.604Z"/><path fill="#15526A" d="M319.514 331.725C321.93 331.273 326.322 331.492 328.784 331.604L328.583 332.47C326.191 332.585 323.782 332.684 321.392 332.827L319.514 331.725Z"/><path fill="#B2B3B3" d="M702.391 302.973C730.025 312.864 743.222 326.438 762.458 346.839C738.808 338.585 709.463 329.223 684.063 330.49C691.286 332.218 702.728 333.239 709.025 334.971C724.862 339.329 741.064 360.757 749.32 373.97C759.765 390.687 765.888 407.384 772.814 425.577C757.029 425.921 741.241 426.063 725.453 426.002C714.951 397.383 695.977 377.137 668.287 364.003C643.752 352.366 614.057 350.086 588.388 359.632C562.638 369.096 541.697 388.394 530.163 413.286C523.293 428.472 522.618 436.479 521.253 452.154C519.794 452.414 519.566 452.186 518.165 451.698C516.293 443.697 512.488 422.503 512.5 414.583L512.639 414.126C514.029 409.404 514.683 404.302 516.248 399.124C521.712 381.047 533.8 372.882 549.623 364.069C562.534 356.877 575.718 351.429 589.344 345.77C610.107 337.142 631.085 329.038 652.257 321.468L686.963 308.748C691.769 306.978 697.692 304.496 702.391 302.973Z"/><path fill="#CF894E" d="M512.663 332.511C538.886 319.855 559.159 312.055 586.447 301.762C634.598 283.601 690.297 267.967 729.184 233.057C739.393 223.892 744.475 214.369 751.729 203.545C748.588 233.106 744.073 264.434 719.473 284.932C707.076 295.262 688.604 301.349 673.611 307.227C650.332 316.355 626.492 324.21 603.1 333.118C580.547 341.706 556.207 350.162 536.248 364.002C526.716 370.611 519.619 378.193 512.935 387.587C512.498 381.2 511.683 368.667 514.046 362.621L513.271 361.887C511.953 353.571 512.522 341.298 512.663 332.511Z"/><path fill="#20170D" d="M735.209 243.782L735.734 244.744C732.949 248.563 726.669 257.239 723.115 260.1C686.499 289.578 635.758 305.282 592.467 321.817C561.218 333.753 539.19 338.971 514.046 362.621L513.271 361.887C523.037 352.631 530.651 347.199 542.505 340.853C592.247 314.223 704.476 292.518 735.209 243.782Z"/><path fill="#64432C" d="M735.209 243.782C735.995 242.331 737.115 239.774 738.394 238.957C738.178 240.624 736.7 243.407 735.734 244.744L735.209 243.782Z"/><path fill="#F7B066" d="M268.446 201.675C291.197 243.958 331.573 261.469 373.647 278.285C393.282 286.222 413.042 293.843 432.922 301.144C460.132 311.119 483.693 319.056 509.549 332.382C509.658 341.014 510.092 353.633 509.224 361.9L508.553 362.596C510.244 367.45 509.618 381.383 509.519 387.161C487.033 355.131 446.161 342.167 410.694 329.473L353.962 309.181C339.216 303.87 319.126 296.788 306.405 287.852C279.087 268.662 273.614 232.289 268.446 201.675Z"/><path fill="#20170D" d="M296.55 255.533C320.893 275.877 349.664 287.225 378.832 298.948C397.217 306.334 415.65 313.601 434.129 320.747C460.808 331.166 488.965 340.91 509.224 361.9L508.553 362.596C484.179 340.04 460.201 331.824 429.714 320.191C411.364 313.237 393.099 306.059 374.925 298.657C345.928 286.857 320.345 276.81 296.325 256.219L296.55 255.533Z"/><path fill="#664028" d="M296.325 256.219C290.639 252.177 282.166 241.764 278.898 235.444C285.885 243.982 288.072 247.635 296.55 255.533L296.325 256.219Z"/><path fill="#F7B066" d="M514.35 502.95C528.815 505.41 530.725 514.972 538.158 526.001C540.008 528.745 545.795 534.667 546.717 536.954C558.664 566.578 538.146 594.689 521.402 617.511C517.752 622.487 515.591 627.61 512.317 631.849C510.322 630.421 505.09 621.182 503.107 618.545C486.395 596.325 468.028 569.45 475.722 540.229C477.57 533.208 483.337 527.351 487.146 521.303C489.833 517.036 492.631 512.338 495.909 508.522C500.63 503.22 507.741 503.019 514.35 502.95Z"/><path fill="#CF894E" d="M514.35 502.95C528.815 505.41 530.725 514.972 538.158 526.001C540.008 528.745 545.795 534.667 546.717 536.954C558.664 566.578 538.146 594.689 521.402 617.511C517.752 622.487 515.591 627.61 512.317 631.849C512.157 619.726 512.848 607.387 512.914 595.22L513.053 508.013L513.347 506.521L514.35 502.95Z"/><path fill="#F7B066" d="M513.347 506.521C516.014 507.215 518.133 507.755 520.742 508.714C518.26 509.223 515.95 508.02 513.053 508.013L513.347 506.521Z"/><path fill="#073354" d="M525.354 518.879C529.681 521.644 534.498 530.49 537.051 535.015C538.351 537.319 538.638 538.484 537.948 541.058C531.121 541.04 525.142 524.694 525.354 518.879Z"/><path fill="#073354" d="M494.266 519.28C500.172 523.33 488.713 537.769 484.915 541.155C484.054 540.418 484.03 540.338 483.366 539.405C483.577 535.006 491.646 523.388 494.266 519.28Z"/><path fill="#664028" d="M727.581 430.512L765.731 430.447C771.331 430.441 789.563 429.279 793.319 433.909C796.148 437.397 794.723 451.87 794.335 457.033C793.456 462.562 791.51 465.481 785.699 465.661C780.234 465.83 774.886 465.652 769.427 465.588L732.017 465.021L732.046 455.271C731.977 446.615 729.719 438.884 727.581 430.512Z"/><path fill="#64432C" d="M732.046 455.271C747.549 457.648 777.618 456.732 794.335 457.033C793.456 462.562 791.51 465.481 785.699 465.661C780.234 465.83 774.886 465.652 769.427 465.588L732.017 465.021L732.046 455.271Z"/><path fill="#64432C" d="M232.619 439.531C235.688 433.491 241.976 429.69 248.384 430.655C255.619 431.745 291.807 429.553 296.051 431.395C296.635 432.665 296.184 433.603 295.83 435.014C294.63 439.74 293.949 443.324 293.154 448.145C292.702 454.202 292.483 458.725 292.51 464.801C285.848 464.532 277.282 464.88 270.376 464.931C259.882 465.008 250.028 464.709 239.569 464.476C232.798 459.377 230.72 456.328 231.754 447.66C231.875 444.714 231.817 442.377 232.619 439.531Z"/><path fill="#664028" d="M231.754 447.66C251.961 448.032 273.256 447.422 293.154 448.145C292.702 454.202 292.483 458.725 292.51 464.801C285.848 464.532 277.282 464.88 270.376 464.931C259.882 465.008 250.028 464.709 239.569 464.476C232.798 459.377 230.72 456.328 231.754 447.66Z"/><path fill="#897166" d="M232.619 439.531C235.688 433.491 241.976 429.69 248.384 430.655C255.619 431.745 291.807 429.553 296.051 431.395C296.635 432.665 296.184 433.603 295.83 435.014C278.838 434.964 260.968 434.537 243.971 434.722C240.746 434.757 235.544 438.911 232.619 439.531Z"/><path fill="#C6C5C5" d="M501.604 472.293L509.48 470.378C511.304 470.527 513.307 470.61 515.052 471.07C517.004 471.423 518.928 471.855 520.866 472.275C522.594 482.09 523.941 490.588 525.959 500.516L525.474 500.27C515.721 495.425 506.461 496.755 496.539 500.098C499.536 489.817 500.747 482.876 501.604 472.293Z"/><path fill="#FEFEFE" d="M509.48 470.378C511.304 470.527 513.307 470.61 515.052 471.07C515.029 476.171 515.34 489.965 512.967 493.858L512.289 493.627C510.487 489.49 509.611 475.313 509.48 470.378Z"/><path fill="#F7B066" d="M501.498 457.675C508.187 456.502 515.379 455.877 521.726 458.77C521.497 460.804 521.619 465.612 521.014 466.857C513.171 464.273 509.235 464.377 501.517 466.896L501.498 457.675Z"/></svg>