<?xml version="1.0" encoding="utf-8" ?><svg xmlns="http://www.w3.org/2000/svg" xmlns:xlink="http://www.w3.org/1999/xlink" width="1051" height="1051" viewBox="0 0 1051 1051"><clipPath id="cl_3"><rect width="1051" height="1051" rx="199.40277" ry="199.40277"/></clipPath><g clip-path="url(#cl_3)"><path fill="#2E3A5A" transform="scale(1.02637 1.02637)" d="M870.271 83.8495C870.327 84.1227 870.384 84.3958 870.44 84.669C868.561 135.795 865.114 191.55 838.052 236.374C830.217 249.351 823.541 257.533 815.422 267.425C823.932 264.881 838.144 262.523 847.178 260.769C838.091 287.437 826.515 299.444 801.964 312.285C814.177 323.564 826.823 333.315 837.236 346.553C839.814 349.83 843.357 354.34 846.211 357.209C790.895 351.263 730.645 350.019 675.179 354.134C670.846 354.456 662.293 358.311 658.046 360.071C674.518 357.412 701.476 357.008 718.35 357C748.622 356.898 778.89 357.808 809.101 359.727C828.298 360.957 847.364 363.063 866.553 364.182C866.45 373.885 865.021 392.262 865.893 401.448C854.01 399.306 841.76 397.997 829.845 396.172C857.648 413.654 890.24 507.447 902.267 541.158C897.66 539.982 891.95 537.992 887.334 536.524C887.172 539.708 887.158 542.87 887.13 546.055C886.955 566.156 886.653 586.459 884.594 606.474C883.546 616.191 882.158 625.869 880.432 635.489C879.381 641.079 877.333 649.601 876.88 654.83C872.089 649.761 868.698 643.987 863.004 638.356C856.206 656.366 850.666 675.623 843.596 694.299C840.068 703.47 836.388 712.582 832.555 721.63C830.181 727.205 827.233 733.36 825.276 738.961C823.409 733.323 820.196 721.081 819.287 715.283C809.437 735.967 800.108 754.619 788.354 774.389C780.623 787.394 771.631 800.841 764.434 813.984C764.372 803.332 764.133 792.128 764.379 781.517C751.706 787.861 736.527 796.754 723.941 803.713L651.834 843.682L614.466 864.134C606.887 868.273 597.668 873.136 590.624 877.931C585.891 881.152 579.823 886.537 575.182 890.201C563.92 898.973 552.729 907.836 541.612 916.791C532.297 924.374 521.452 933.744 511.622 940.4C497.973 927.539 480.291 915.807 465.662 903.769C451.018 891.719 436.255 878.666 419.633 869.579C414.409 866.723 409.081 863.917 403.821 861.073L363.865 839.412C329.005 820.377 294.545 800.618 260.507 780.15C260.494 789.914 259.999 800.111 259.583 809.878C252.277 802.408 238.578 778.886 232.934 769.312C222.978 751.923 213.732 734.139 205.218 716.001C202.115 722.636 199.138 728.879 196.494 735.71C182.792 707.41 169.047 665.251 161.477 635.518C156.481 641.269 151.689 647.368 146.916 653.321C137.206 610.145 136.178 578.879 136.083 535.623C131.048 537.385 126.42 539.002 121.484 541.051C124.273 531.392 127.929 522.164 131.297 512.506C144.466 474.734 161.545 438.054 183.333 404.462C187.432 398.143 193.368 399.314 195.734 396.465L195.267 395.993C190.075 395.584 164.363 400.03 157.676 401.029C158.299 390.346 157.961 374.775 157.501 364.032C204.021 360.738 249.306 357.675 296.214 358.027C310.729 358.136 334.497 358.291 349.701 357.662C350.239 357.639 352.006 356.423 352.452 355.358L351.957 354.414C345.337 350.98 308.138 352.824 298.846 352.984C267.928 353.25 237.019 354.197 206.142 355.823C196.454 356.436 186.775 357.186 177.108 358.073C190.929 341.584 206.235 326.989 221.558 312.014C194.994 297.08 187.968 287.851 176.951 260.756C187.087 263.207 197.252 265.54 207.442 267.756C202.97 261.817 198.513 255.873 194.108 249.884C163.086 207.693 156.634 153.665 154.591 102.835C154.343 96.6875 154.206 90.1758 153.435 84.0914L153.312 83.1502C178.814 124.938 225.181 168.177 264.976 196.433C279.079 192.994 297.457 190.119 312.155 186.961L436.72 160.105C450.339 157.23 463.931 154.232 477.495 151.112C512.011 143.16 509.43 142.241 544.371 150.187L587.961 160.041L759.572 197.888C792.845 173.527 822.726 144.844 848.427 112.595C856.369 102.806 862.754 93.6356 870.271 83.8495ZM230.034 391.782C229.723 394.576 229.4 397.373 229.146 400.172C222.719 471.024 254.909 542.063 332.633 550.476C348.41 552.036 364.338 550.215 379.356 545.135C422.497 528.411 451.195 493.719 454.335 447.8C455.929 424.486 440.875 411.94 420.587 402.981C383.917 388.768 338.937 386.74 299.808 387.723C275.559 388.531 254.241 389.863 230.034 391.782ZM728.296 392.004L735.383 391.697C738.697 413.858 739.176 431.387 731.816 452.973C712.819 508.683 643.65 539.555 592.62 505.069C589.327 502.251 585.127 495.667 583.775 491.619C592.224 498.094 600.139 503.57 610.15 507.553C646.09 521.856 688.502 506.767 711.466 476.712C730.055 452.382 733.032 423.208 728.588 393.776C728.499 393.184 728.402 392.593 728.296 392.004ZM582.87 492.766C585.25 497.485 588.362 502.106 591.223 506.576C604.257 523.926 620.469 537.275 641.03 544.839C668.342 554.886 698.843 554.621 725.33 542.23C756.097 527.837 775.827 502.455 787.271 471.025C793.644 453.523 802.271 416.908 794.092 400.327C791.262 394.589 786.12 391.436 780.248 389.46C753.685 380.524 656.853 389.178 627.08 395.024C616.654 397.071 605.274 400.206 595.775 404.977C585.043 410.366 575.042 418.402 571.251 430.199C564.807 450.252 573.699 474.973 582.87 492.766ZM176.875 144.368C211.097 237.343 264.197 307.856 355.313 349.94C369.205 356.196 383.37 361.827 397.766 366.817C433.225 379.321 455.085 383.539 478.116 416.542C502.099 405.692 518.231 405.308 543.115 414.64L545.856 415.684C571.232 379.65 605.227 374.392 644.33 360.285C744.571 324.12 798.897 256.752 840.165 161.64C842.632 155.389 845.044 148.936 847.551 142.731C835.783 157.801 825.889 174.406 814.609 189.916C789.777 224.061 761.459 255.012 727.636 280.391C706.002 296.569 682.623 310.272 657.936 321.241C641.373 328.388 624.64 335.136 607.753 341.479C567.093 356.688 541.722 365.502 512.068 400.226C505.006 392.556 499.321 386.206 491.215 379.547C455.475 350.187 409.399 339.785 367.895 321.822C342.449 310.578 318.415 296.376 296.291 279.51C260.594 252.541 231.055 219.652 204.392 183.903C198.001 175.335 183.567 150.4 176.875 144.368ZM473.888 503.343C477.3 515.599 509.766 625.961 512.331 629.607L512.851 628.895C521.592 598.666 530.575 568.507 539.797 538.421C542.078 531.055 548.204 509.262 550.986 503.513C545.121 490.526 539.209 476.971 527.797 467.81C523.267 464.173 516.587 459.651 510.537 460.03C491.492 464.838 479.14 485.791 473.888 503.343ZM404.863 179.176C397.078 188.695 390.065 200.424 382.475 210.084C392.089 217.502 401.654 224.984 411.17 232.529L431.858 249.079C434.493 251.189 439.581 255.577 442.225 257.328C458.324 233.577 490.045 184.293 506.769 157.625C506.732 157.297 506.696 156.969 506.66 156.641L505.136 156.619C495.951 158.87 485.587 160.753 476.255 162.702C461.688 165.804 447.161 169.087 432.677 172.552C423.488 174.69 413.9 176.637 404.863 179.176ZM581.472 257.104L613.743 231.116C622.292 224.479 631.56 216.928 640.164 210.553L617.382 178.106C584.865 170.842 549.82 162.446 517.335 156.291C522.794 166.534 529.074 175.167 535.124 184.94C550.196 209.235 565.647 233.293 581.472 257.104ZM202.421 461.034C198.565 466.501 191.56 474.126 186.988 479.33C175.351 492.597 163.363 505.551 151.035 518.179C159.502 513.761 171.431 509.024 180.378 505.089C189.775 500.956 201.766 495.103 211.208 491.659C225.728 564.277 311.13 593.991 376.703 579.554C410.336 572.15 437.521 556.534 457.132 527.764C461.555 521.174 465.477 514.261 468.865 507.084C471.855 500.75 474.172 493.735 477.283 487.648C486.138 470.322 504.203 447.795 525.363 462.443C547.211 477.567 550.48 501.916 564.224 522.756C574.426 538.218 583.903 549.151 599.448 559.598C629.552 579.83 672.435 587.95 707.953 581.214C746.465 573.911 777.888 552.385 805.545 525.642C805.934 516.306 806.275 506.969 806.566 497.63C802.27 505.066 798.987 511.796 794.091 518.959C775.883 546.038 748.519 565.64 717.022 574.166C680.893 583.642 642.485 578.486 610.134 559.818C590.143 548.216 577.051 533.636 565.302 513.812C552.724 492.59 553.178 470.54 530.661 456.205C523.696 451.772 519.175 449.754 510.821 449.74C498.097 451.025 488.985 457.436 480.882 467.068C471.072 478.73 469.21 493.75 463.08 507.228C427.966 584.437 318.902 599.997 255.663 548.96C225.413 524.546 212.954 497.075 202.421 461.034ZM517.51 709.206C528.088 720.505 539.725 732.647 550.015 744.166C559.064 754.142 568.267 764.691 577.718 774.218C586.445 743.4 594.936 712.515 603.19 681.567C605.337 673.408 611.899 650.285 612.91 642.554L612.411 641.936C599.631 650.111 587.421 659.518 574.902 668.093C555.266 681.543 536.384 694.686 517.51 709.206ZM443.607 769.604C454.752 758.795 466.171 748.665 477.138 738.115C487.635 728.802 497.616 718.644 508.163 709.174C485.822 692.083 460.038 674.772 436.921 658.652C430.688 654.306 416.366 643.192 410.48 640.193L430.137 718.394C433.421 731.867 438.876 757.395 443.607 769.604ZM308.853 275.506C316.11 273.909 324.882 273.161 332.349 271.929C354.295 268.308 376.963 266.527 398.834 263.308C391.758 261.003 383.203 259.301 376.052 257.561C324.874 245.109 277.323 223.479 236.593 189.803C231.607 185.681 225.35 179.23 220.13 175.664L219.436 175.199C214.403 170.254 206.993 164.2 201.474 159.529C203.399 161.969 211.695 174.122 212.657 175.03C217.679 183.047 226.417 193.699 232.415 201.078C252.408 225.676 282.342 257.766 308.853 275.506ZM621.299 263.343C625.936 263.661 630.136 264.299 634.564 264.66C660.412 267.46 691.483 270.62 717.106 274.426C752.078 247.361 783.011 215.445 808.969 179.643C811.458 176.227 820.593 163.85 820.915 160.47C757.954 220.94 706.783 248.001 621.299 263.343ZM517.804 374.591C525.933 361.497 531.719 349.342 539.035 335.982C551.087 312.389 565.966 288.306 576.757 264.282C556.565 259.666 536.305 255.353 515.984 251.345C515.843 274.165 516.301 297.512 516.969 320.347C517.443 336.532 516.352 359.038 517.804 374.591ZM446.448 264.292L485.394 336.22C491.745 348.371 500.008 363.15 505.747 375.259C507.027 350.467 506.149 324.558 507.434 299.634C507.705 294.396 508.848 254.799 507.784 251.864L507.476 251.684C487.265 255.252 466.547 259.955 446.448 264.292ZM528.967 366.619C539.745 359.703 547.783 354.908 559.124 348.946C583.615 337.373 603.966 331.882 627.581 321.864C618.455 310.94 609.391 299.963 600.39 288.936C595.3 282.671 587.209 272.186 581.663 266.708C566.181 294.281 551.903 322.838 536.974 350.733C534.188 355.938 531.482 361.278 528.967 366.619ZM396.264 321.305C417.234 328.432 448.414 340.199 467.616 350.017C478.076 355.366 485.633 360.238 495.399 366.876C491.4 358.906 487.068 350.666 482.747 342.846C468.895 317.777 456.237 291.422 441.631 266.828C427.374 285.022 409.714 302.958 396.264 321.305ZM589.365 257.675C596.674 256.108 604.801 256.203 612.388 254.475C657.411 247.508 707.901 231.222 746.522 206.772C737.34 204.904 730.466 204.518 721.053 205.292C707.521 206.405 694.03 208.122 680.524 209.52C670.99 210.508 653.711 211.021 645.207 214.311C638.309 216.979 597.842 250.157 589.365 257.675ZM632.667 320.091C652.364 311.942 667.769 305.131 686.283 294.604C693.581 290.367 704.698 284.259 710.943 279.207C686.786 275.925 662.565 273.135 638.295 270.837C626.181 269.714 614.092 268.336 602.037 266.703C598.394 266.216 591.032 265.409 587.718 264.665C589.901 268.785 596.456 276.017 599.532 280.017C609.788 293.351 622.648 306.783 632.667 320.091ZM518.641 700.663L518.202 702.037C519.517 701.964 520.43 700.855 521.722 699.858C552.061 679.978 581.714 656.581 612.653 636.545C596.11 625.385 578.704 613.995 562.415 602.586C553.241 625.514 542.672 648.753 532.6 671.328C528.203 681.184 523.08 690.886 518.641 700.663ZM315.746 279.786C324.358 285.726 333.191 291.339 342.226 296.612C359.039 305.958 372.886 311.827 390.857 319.114C401.279 306.361 412.775 293.955 423.183 281.159C426.479 277.105 432.917 269.936 435.658 265.814C434.142 265.253 434.117 265.475 432.391 265.699C404.719 268.579 377.066 271.636 349.434 274.87C338.345 276.253 326.589 278.574 315.746 279.786ZM503.284 699.643C504.004 700.224 504.742 700.633 505.531 701.119L505.86 700.626L505.13 698.595C501.419 691.853 497.756 683.967 494.622 676.904C483.727 652.349 471.845 628.01 460.944 603.479C446.926 611.881 425.576 625.86 412.266 635.32C429.015 647.457 445.613 658.744 462.494 670.6L503.284 699.643ZM431.816 257.34L432.394 257.201C431.619 255.156 380.952 214.323 377.846 213.872C354.371 210.467 316.56 207.937 291.475 205.561C288.596 205.288 283.91 205.487 281.229 205.626L280.359 206.253C281.8 208.151 293.007 214.295 295.883 215.863C338.616 239.163 382.09 250.601 429.828 257.121C430.489 257.209 431.152 257.283 431.816 257.34ZM686.906 810.191C695.153 806.167 703.971 801.204 712.1 796.842C729.285 787.773 746.311 778.404 763.168 768.739C763.162 745.609 764.063 714.433 762.801 691.871C758.954 697.642 747.136 715.985 744 721.274C737.964 731.456 686.637 807.077 686.906 810.191ZM260.92 766.786C281.457 779.459 302.863 790.967 323.39 803.707C327.059 805.984 330.821 808.215 334.576 810.348C331.338 803.254 323.535 791.468 319.247 784.634C311.273 771.914 303.391 759.138 295.602 746.304L272.963 709.041C270.581 705.113 263.992 693.74 261.456 690.796C261.573 716.165 260.967 741.401 260.92 766.786ZM346.607 805.155C346.488 781.201 346.882 759.178 346.17 735.105C327.813 726.993 307.21 712.2 290.406 700.96C287.236 698.839 276.322 689.218 274.273 688.363C291.358 718.19 310.404 748.303 328.335 777.634C330.486 781.152 344.337 803.179 346.203 805.068L346.607 805.155ZM448.949 258.26C468.989 254.753 488.453 249.911 508.397 246.022C508.141 238.548 508.474 228.983 508.51 221.336C508.553 203.549 508.729 185.764 509.037 167.98L508.899 165.673L508.273 165.675L506.138 169.046C504.612 170.894 501.399 175.937 499.961 178.073C494.842 185.778 489.79 193.528 484.808 201.322C474.055 217.902 458.252 241.122 448.949 258.26ZM681.847 732.075C679.451 755.324 677.885 778.651 677.15 802.012L677.489 802.225C692.756 779.535 707.815 756.707 722.664 733.742C731.318 720.389 742.867 703.558 749.76 689.672L749.419 689.038C727.601 703.126 703.905 718.749 681.847 732.075ZM516.118 246.427C523.444 246.782 531.136 248.752 538.315 250.292C550.776 252.963 563.395 256.364 575.954 258.47C571.156 252.257 564.772 241.569 560.415 234.743C551.259 220.624 542.294 206.382 533.523 192.021C530.553 187.169 518.359 166.914 515.507 164.278C515.421 190.45 515.47 220.152 516.118 246.427ZM770.623 560.522C775.165 572.124 779.874 583.659 784.75 595.125C786.95 600.304 789.095 605.51 791.555 610.57C801.335 585.007 805.228 559.262 805.351 531.926C792.307 544.655 785.837 550.409 770.623 560.522ZM410.942 630.448L420.09 624.594C431.439 617.038 447.741 605.989 459.33 599.335C454.833 587.587 450.271 576.285 447.757 563.866C447.247 561.346 446.866 553.474 445.665 552.309C434.443 578.22 421.541 604.166 410.942 630.448ZM514.854 756.653C526.939 760.2 538.298 764.151 550.161 768.29C556.47 770.492 565.782 774.004 572.178 775.442C571.693 773 520.312 718.284 514.916 713.435C514.067 726.171 515.109 743.412 514.854 756.653ZM403.803 644.386C398.355 652.819 356.953 720.575 356.653 725.572C370.969 725.117 385.963 722.373 400.016 721.881C400.522 695.559 402.293 670.544 403.803 644.386ZM257.896 658.834C272.05 638.316 285.935 616.831 299.137 595.637C300.398 593.613 302.229 590.787 303.2 588.69L302.589 588.5C291.884 592.319 281.183 595.741 270.467 599.638C258.269 604.075 245.884 608.987 233.595 613.021C237.548 623.122 243.035 636.616 249.048 645.716C251.438 649.637 254.893 655.593 257.896 658.834ZM674.309 620.595C680.308 628.7 686.146 636.924 691.818 645.261C695.436 650.459 699.092 655.858 702.775 660.988C703.51 652.444 711.929 589.569 709.902 586.467C696.932 597.603 686.43 608.633 674.309 620.595ZM450.47 551.37C450.745 571.356 466.6 604.171 475.002 623.017C483.184 641.679 491.679 660.202 500.486 678.577C502.183 682.065 507.674 693.951 509.444 696.134L509.965 696.133L510.031 670.616C510.113 663.922 511.473 655.254 509.708 648.799C507.541 640.873 456.892 557.9 450.835 551.706C450.72 551.588 450.592 551.482 450.47 551.37ZM209.724 694.018C213.929 690.335 218.584 686.404 222.662 682.633C230.372 676.054 238.393 669.708 246.198 663.216C237.908 650.48 230.097 637.487 224.621 623.256C223.895 621.369 222.119 615.875 221.021 614.774C218.421 630.166 215.997 645.587 213.749 661.035C212.185 671.641 210.356 683.352 209.724 694.018ZM778.82 662.987C786.62 668.88 794.707 675.734 802.176 682.107C806.334 685.796 810.587 689.447 814.467 693.42C812.775 683.858 805.257 616.053 803.294 613.898C799.58 621.072 796.187 629.264 792.697 636.654C788.45 645.626 783.82 654.412 778.82 662.987ZM659.337 585.989C663.455 596.108 667.756 606.151 672.238 616.114C677.345 611.196 682.171 606.192 687.154 601.162C692.127 596.382 697.867 591.422 702.6 586.73C694.769 587.934 666.884 588.199 659.337 585.989ZM403.8 722.336C413.629 735.914 426.436 751.004 435.439 764.209L436.351 764.86C436.787 764.193 436.768 764.494 436.596 763.783C430.733 739.667 425.216 714.702 418.888 690.773C416.327 681.088 411.04 658.154 407.596 649.815C405.983 673.97 404.717 698.146 403.8 722.336ZM321.547 670.482C303.142 669.324 284.983 667.781 266.604 666.724C269.358 671.896 305.02 696.913 311.814 701.768C319.75 707.44 338.946 719.757 348.082 723.472C345.798 717.464 342.249 711.359 339.395 705.571C333.724 694.066 326.909 682.065 321.547 670.482ZM323.231 659.644L324.043 661.721C325.293 661.605 324.734 661.651 326.007 660.267C327.315 655.186 344.781 627.851 348.567 621.326C338.118 610.923 322.528 595.528 312.954 584.852C314.479 601.705 316.556 618.503 319.181 635.219C320.219 641.9 322.751 653.45 323.231 659.644ZM251.083 558.711C241.185 551.351 233.872 544.33 226.442 534.434C223.828 530.953 221.194 526.433 218.489 523.283C218.553 541.987 224.382 590.221 231.351 607.065C232.436 603.816 235.357 595.433 236.987 592.575C241.473 582.259 247.409 569.2 251.083 558.711ZM235.569 606.965C247.902 603.744 259.381 598.314 271.122 594.579C281.658 590.509 292.318 586.764 303.085 583.351C283.026 577.473 272.457 573.17 254.693 561.64C249.612 574.529 241.707 594.849 235.569 606.965ZM766.963 660.422L774.955 645.472C780.659 634.576 785.822 625.203 790.178 613.596C774.136 607.396 757.959 601.554 741.657 596.073C736.713 594.385 724.63 590.054 719.969 589.286C729.511 605.957 739.98 621.208 750.926 636.961C756.302 644.697 761.324 652.932 766.963 660.422ZM287.543 315.646C281.023 309.621 271.302 300.581 264.134 295.571C259.752 292.508 247.15 289.455 241.71 287.808C227.336 283.456 210.87 280.215 196.785 275.5C211.161 298.61 237.079 305.407 262.086 311.714C268.267 313.273 281.432 315.492 287.543 315.646ZM400.707 636.268C387.374 632.816 364.444 627.66 352.417 623.101C346.959 634.454 334.603 652.699 327.736 664.514C338.964 661.211 351.98 655.786 363.061 651.523C375.505 646.558 388.42 641.561 400.707 636.268ZM310.878 201.961C332.826 203.829 355.748 205.481 377.43 209.04C383.801 199.516 391.407 190.208 397.456 180.971C396.928 180.56 397.177 180.603 396.801 180.589C364.942 187.333 333.65 193.34 301.919 200.768C305.064 201.284 307.694 201.733 310.878 201.961ZM759.391 668.229C752.06 668.327 744.729 668.326 737.399 668.226C726.83 668.891 716.239 669.161 705.65 669.038C696.913 685.697 684.57 704.681 675.03 721.842C679.515 719.867 685.037 716.356 689.114 713.57C711.96 699.143 736.603 681.721 759.391 668.229ZM695.237 662.571C696.72 663.056 697.133 663.474 698.435 663.194L698.129 661.964C689.954 652.24 678.584 634.348 670.67 623.371C655.303 627.842 639.908 632.215 624.486 636.49C648.718 646.783 671.364 653.442 695.237 662.571ZM645.026 208.548C664.288 205.316 689.197 203.629 709.121 201.387C711.718 201.055 714.435 200.752 717.008 200.325C686.274 192.309 653.97 187.066 623.672 179.374C630.357 188.963 638.852 199.28 645.026 208.548ZM720.651 583.435C730.183 587.378 740.615 590.343 750.368 594.016C761.725 597.948 773.04 602.002 784.311 606.175C782.847 602.579 767.196 563.558 766.62 563.035C749.01 572.8 739.725 576.9 720.651 583.435ZM831.031 514.019C834.012 522.769 839.507 533.671 843.232 542.706C853.1 566.64 862.375 589.777 870.722 614.303C871.614 613.316 871.624 611.192 871.849 609.613C874.504 584.192 876.661 557.637 876.123 532.048C861.668 526.558 845.371 518.543 831.031 514.019ZM809.755 491.539C824.69 497.297 845.44 504.945 859.86 511.806C863.133 513.18 866.38 514.616 869.599 516.114C866.435 512.622 863.31 509.096 860.222 505.537C853.986 498.058 847.137 490.594 840.749 483.137C834.906 476.317 826.547 465.522 820.126 459.641C817.379 470.491 813.914 481.147 809.755 491.539ZM586.845 773.006C595.418 768.885 602.806 764.853 611.118 760.231C626.238 751.746 648.602 739.455 662.201 729.348C654.224 728.56 632.542 727.507 626.235 725.9C615.713 739.277 604.33 752.159 593.521 765.316C591.375 767.929 589.144 770.529 586.845 773.006ZM621.648 647.238C622.921 662.136 624.709 676.993 626.019 691.867C626.894 701.806 627.371 712.069 628.034 722.055C641.243 723.002 655.112 723.594 668.2 724.809C663.019 715.269 626.307 650.165 621.648 647.238ZM203.54 347.267C211.46 345.6 223.949 345.26 232.25 344.765L244.614 344.203C249.518 338.878 260.871 328.056 264.643 323.239C257.639 321.88 240.991 318.76 234.531 315.886C225.937 324.588 210.645 338.474 203.54 347.267ZM646.613 583.823C624.515 579.743 601.771 567.237 584.138 553.669C586.983 559.168 590.193 566.845 592.811 572.621C598.042 584.781 603.36 596.904 608.764 608.989C610.311 612.484 615.015 623.747 616.611 626.466C617.25 628.034 617.554 629.226 618.782 630.372C621.892 626.724 628.196 615.148 630.795 610.58C635.854 601.536 641.128 592.615 646.613 583.823ZM428.01 761.795C419.508 750.393 409.324 736.804 400.193 725.998C389.584 727.64 371.382 729.352 360.222 730.359C367.338 734.726 375.131 738.146 382.327 742.358C395.709 750.19 409.994 756.749 423.477 764.283C427.345 766.144 432.439 769.282 435.939 771.612C433.392 768.835 430.399 764.817 428.01 761.795ZM147.35 504.981C150.699 501.286 154.067 497.607 157.454 493.945C165.519 485.113 173.562 476.271 181.552 467.373C187.485 460.765 193.293 453.545 199.787 447.516C197.169 433.546 196.887 420.133 196.317 406.007C192.473 410.917 187.441 420.463 184.065 426.125C170.815 448.349 160.753 468.7 151.372 492.7C149.872 496.822 148.366 500.702 147.35 504.981ZM154.941 608.885C162.775 586.199 172.323 563.643 181.358 541.397C185.256 531.799 189.822 522.474 193.519 512.736C179.015 518.304 163.324 525.387 148.417 531.278C146.113 546.78 148.717 588.933 150.774 604.874C151.107 609.013 151.589 612.557 152.191 616.674L154.941 608.885ZM785.302 317.002C778.164 319.025 768.212 322.081 761.106 323.334C769.339 330.093 774.695 334.947 782.209 342.532C788.26 343.192 794.317 343.802 800.378 344.362C806.922 344.915 814.819 345.786 821.319 346.814C817.144 342.184 790.081 317.551 785.302 317.002ZM262.349 661.311C266.418 661.803 273.924 662.336 277.411 662.927C289.031 663.756 309.628 666.196 320.378 665.905C316.47 649.91 314.455 631.936 311.818 615.621C310.9 609.941 309.412 596.137 307.798 590.836L280.992 632.064C275.576 640.274 266.727 652.813 262.349 661.311ZM167.612 613.95C182.406 602.735 196.628 588.329 212.306 577.848C209.151 558.342 207.247 535.136 205.83 515.256C200.029 525.116 166.296 606.326 165.177 615.766C166.222 615.235 165.832 615.54 166.431 614.972L167.612 613.95ZM668.58 618.774C666.303 613.646 656.074 586.495 652.321 584.991C651.862 584.808 651.654 584.794 651.198 584.718C645.428 594.062 639.849 603.522 634.467 613.094C631.261 618.757 627.028 626.784 623.656 632.108C628.586 630.859 633.498 629.538 638.39 628.145C648.297 625.196 658.843 622.175 668.58 618.774ZM855.934 614.648L857.483 615.734L857.978 615.356C855.235 603.991 824.777 525.446 818.946 517.764C817.302 538.858 817.623 556.154 814.284 577.795L855.934 614.648ZM516.125 695.886C517.164 692.553 524.56 678.799 526.518 674.282C536.124 652.559 545.591 630.775 554.919 608.931C562.077 591.774 569.716 574.808 572.831 556.392C572.934 555.284 572.947 554.229 572.982 553.118L572.413 552.822L570.986 554.369C566.975 561.65 560.762 570.682 556.276 577.952L532.14 617.713C528.969 622.892 515.761 643.957 515.258 648.403C513.978 659.721 513.463 684.796 514.56 696.082L514.745 697.698C515.181 697.13 515.709 696.473 516.125 695.886ZM873.469 497.501C865.068 475.62 856.518 455.853 845.248 435.254C839.175 424.153 832.18 414.261 826.058 403.642C825.843 415.707 824.44 432.091 822.895 444.101C836.723 462.648 856.418 481.877 871.4 499.601C872.252 500.957 874.782 503.637 875.955 504.958L873.469 497.501ZM762.591 662.629C752.897 648.919 743.536 634.272 733.964 620.492C729.681 614.327 719.074 596.344 714.987 592.745C713.772 598.656 713.073 605.201 712.607 611.241C711.234 629.065 708.829 646.767 707.081 664.542C720.512 664.497 739.151 664.459 752.374 663.148L762.591 662.629ZM612.54 629.013C605.591 612.708 598.486 596.469 591.227 580.3C587.483 571.8 582.078 558.454 577.824 550.527C576.527 566.901 570.329 583.672 563.999 598.802C576.85 606.767 589.225 615.737 601.913 623.975C605.078 626.03 607.977 628.157 611.355 629.871L612.565 631.063L613.166 630.996C612.92 629.969 612.951 629.992 612.54 629.013ZM656.55 747.609C636.74 758.992 610.302 774.738 590.104 784.308C590.002 797.618 591.235 811.681 592.151 825.003C592.727 833.381 592.971 843.42 594.152 851.608C599.465 842.19 605.416 833.152 610.842 823.832C623.928 801.355 637.371 779.218 651.884 757.631C653.764 754.835 655.693 751.909 657.394 749.002L658.709 746.875L658.401 746.439L656.55 747.609ZM739.728 313.857C768.254 310.584 806.509 303.895 824.571 279.942C825.655 278.504 827.425 276.473 827.218 274.647C811.487 278.229 795.73 284.73 780.238 289.52C774.836 291.19 764.432 293.919 759.834 295.95C757.476 296.991 740.341 312.035 739.635 313.526L739.728 313.857ZM436.4 556.796C414.336 572.107 401.52 577.606 375.066 584.063C384.703 597.761 396.671 616.488 406.565 629.219C415.422 607.256 426.45 585.712 435.62 563.84C436.548 561.627 437.861 558.694 439.09 556.683L439.373 554.997L438.809 554.792L436.4 556.796ZM390.894 628.66C394.345 629.433 398.531 630.26 401.872 631.213C396.53 623.192 374.92 589.487 369.054 584.743C364.364 596.095 359.455 608.607 354.718 619.748C365.467 622.66 381.335 625.609 390.894 628.66ZM195.768 703.2C197.565 691.651 212.547 596.942 211.734 592.941C203.506 599.585 195.358 606.328 187.291 613.167C182.543 617.14 175.927 622.379 171.632 626.537C175.084 644.762 182.224 668.246 188.773 685.623C191.01 691.202 193.763 697.615 195.768 703.2ZM479.618 460.045C492.188 450.652 498.199 444.047 514.972 444.547C528.663 447.401 532.535 450.717 543.506 459.417C534.679 446.399 524.556 437.852 507.899 439.748C493.148 443.354 488.901 448.151 479.618 460.045ZM616.198 650.65C609.344 673.158 603.768 695.776 597.73 718.533C593.971 732.704 586.48 755.078 584.551 768.859C594.063 758.641 602.925 746.515 612.15 735.878C615.957 731.488 619.433 726.74 623.599 722.659C622.334 698.983 620.33 675.352 617.591 651.802C617.563 650.415 617.523 650.155 617.252 648.79L616.836 648.872L616.198 650.65ZM775.493 771.413C779.44 767.132 785.446 755.408 788.338 749.796C796.108 735.145 803.491 720.292 810.479 705.252C799.098 693.81 785.267 684.952 774.445 674.756C774.173 696.884 774.272 719.015 774.744 741.14C774.91 750.662 775.544 762.152 775.493 771.413ZM363.756 585.952C354.873 586.409 328.865 587.65 320.763 585.885C331.32 596.543 340.68 606.927 350.87 617.73L354.901 607.874C357.74 600.958 361.277 592.901 363.756 585.952ZM852.879 145.578C845.363 161.689 838.713 178.107 830.889 194.104C820.212 216.122 807.444 237.063 792.76 256.637C783.468 269.259 774.674 277.94 765.504 289.511C794.643 278.412 824.575 241.913 836.983 213.663C844.598 196.328 849.403 177.918 852.843 159.319C853.479 155.88 855.056 147.99 855.154 144.776C855.434 143.435 855.832 142.369 855.423 141.102C854.074 142.17 853.563 143.938 852.879 145.578ZM827.17 702.245C830.005 695.779 832.66 689.236 835.132 682.622C842.004 664.215 846.904 647.136 853.144 628.735L829.758 608.058C825.024 603.858 817.668 597.016 812.608 593.748L823.374 672.913C824.535 681.903 826.427 693.531 827.17 702.245ZM663.587 823.909C665.186 802.569 667.793 776.619 667.61 755.682L667.295 755.49C660.184 766.051 605.102 850.046 605.858 855.166L605.965 855.233C625.442 845.296 644.657 834.851 663.587 823.909ZM358.003 823.237C377.626 834.066 397.36 844.692 417.203 855.112C417.343 853.233 406.655 836.873 404.876 833.969C394.758 817.458 384.751 800.88 374.854 784.236C371.178 777.992 362.069 760.933 357.796 756.283C356.96 777.811 357.721 801.618 358.003 823.237ZM509.882 713.438C502.25 720.062 449.754 768.444 448.206 772.081L448.266 772.636C466.094 767.948 484.11 763.906 501.869 758.904C504.596 758.136 507.435 757.36 510.179 756.689C510.128 747.902 510.144 739.115 510.23 730.329C510.254 727.001 510.458 716.029 509.882 713.438ZM343.684 704.155C346.626 709.876 349.64 715.56 352.725 721.206C367.045 699.453 379.349 675.366 392.828 653.029C394.708 649.913 396.728 646.287 398.345 643.052L398.059 642.597C385.05 647.927 371.961 653.057 358.795 657.984C348.213 662.014 337.134 666.448 326.334 669.629C331.333 680.972 337.828 693.171 343.684 704.155ZM515.213 818.886C526.844 810.931 538.546 803.54 550.383 795.925C557.743 791.016 565.923 785.437 573.655 781.136C556.791 775.553 540.183 769.228 523.158 764.133C520.453 763.323 517.543 762.547 514.886 761.634C514.986 779.955 515.596 800.708 515.213 818.886ZM433.787 782.481C410.735 773.028 388.377 757.867 366.604 747.258C370.835 755.108 427.897 850.731 429.281 851.622C430.354 850.682 430.157 848.844 430.191 847.406L433.787 782.481ZM446.855 777.383C455.252 784.007 464.826 789.823 473.529 796.072L496.675 811.389C500.682 814.037 506.259 817.954 510.354 820.16L510.323 778.799C510.287 775.448 510.331 764.597 509.822 761.847L509.593 761.647C489.012 766.056 467.278 771.997 446.855 777.383ZM444.096 804.904C443.026 819.612 442.252 834.341 441.775 849.081C441.588 854.269 441.002 863.71 441.312 868.658C458.561 883.021 476.03 897.118 493.714 910.942L494.584 911.551C494.889 910.27 488.05 897.373 487.078 895.395C477.425 875.423 467.988 855.347 458.77 835.171C454.587 826.181 449.199 812.836 444.096 804.904ZM237.032 752.877C241.34 760.585 245.688 767.909 250.11 775.52L250.561 710.337C250.608 702.948 251.007 682.1 249.954 675.573C237.955 683.996 224.736 695.506 213.67 705.454C220.661 721.642 228.458 737.47 237.032 752.877ZM579.784 802.851C579.246 803.954 576.201 810.196 575.943 811.001C572.915 820.459 531.113 907.227 531.588 909.394C532.715 908.886 532.854 908.908 533.746 908.084C549.731 895.007 567.398 880.319 584.218 868.326C582.697 854.203 582.426 839.624 581.572 825.453C581.26 820.27 580.863 807.726 579.784 802.851ZM518.322 831.195C518.263 841.687 517.02 902.561 518.813 907.698C536.449 870.737 552.642 836.288 569.232 798.76C569.101 798.488 568.969 798.215 568.838 797.943C552.78 807.675 533.779 820.373 518.322 831.195ZM506.783 832.637C497.567 826.2 487.625 820.069 478.194 813.889C470.894 809.105 463.342 803.788 455.89 799.396C460.217 810.85 500.646 901.106 505.793 906.245L506.205 905.743C507.252 894.049 506.995 877.702 506.947 865.748C506.906 855.722 507.309 842.272 506.783 832.637ZM168.488 140.86C168.843 149.714 171.478 160.226 173.173 168.979C179.5 201.668 191.477 231.158 213.389 256.589C229.796 275.63 231.798 280.066 255.976 286.565C226.065 252.539 208.683 227.839 188.778 186.285C184.567 177.535 180.624 168.659 176.955 159.668C174.938 154.855 171.027 144.92 168.488 140.86ZM624.227 641.281C629.531 650.751 637.192 662.627 643.057 672.109C652.791 687.847 661.595 704.145 671.031 719.789C674.477 713.478 678.114 706.499 681.75 700.354C686.927 691.364 696.666 677.324 700.46 668.768C673.986 660.947 649.779 651.254 624.227 641.281Z"/><path fill="#2E3A5A" transform="scale(1.02637 1.02637)" d="M348.531 394.378C359.607 394.831 386.675 398.564 397.178 401.642C395.967 404.434 395.422 406.2 394.542 409.096C397.724 420.058 404.163 424.228 414.815 418.932C417.642 415.207 418.22 413.426 419.256 409C423.89 410.954 427.917 413.039 432.379 415.321C432.02 427.789 430.924 434.444 424.29 445.22C420.099 451.203 413.403 456.768 406.85 459.969C397.094 464.706 385.848 465.339 375.622 461.726C363.947 457.536 354.421 448.87 349.149 437.642C342.511 423.459 343.363 408.803 348.531 394.378Z"/><path fill="#2E3A5A" transform="scale(1.02637 1.02637)" d="M319.797 393.25L326.91 393.494C322.195 420.813 323.741 444.214 345.069 465.064C379.002 498.237 437.674 483.11 445.191 434.478C445.707 431.139 444.922 426.782 447.266 424.242C447.304 424.455 447.341 424.669 447.379 424.882C446.915 426.778 449.294 431.41 450.275 433.694C453.675 450.153 448.65 459.808 436.891 471.224C389.965 516.779 314.246 478.851 316.442 415.316C316.57 411.632 317.306 395.642 319.797 393.25Z"/><path fill="#2E3A5A" transform="scale(1.02637 1.02637)" d="M291.351 392.375C291.585 392.414 294.961 393.11 294.939 393.348C292.477 419.97 292.252 440.572 305.285 465.264C316.725 486.832 336.291 502.949 359.651 510.045C377.39 515.468 396.044 516.162 413.532 509.144C421.416 505.98 428.998 501.066 436.488 497.053L436.694 497.616L435.716 499.485C419.464 520.643 380.96 521.042 357.769 514.416C334.705 507.826 312.842 489.2 301.525 468.198C289.69 446.237 284.387 416.678 291.351 392.375Z"/><path fill="#2E3A5A" transform="scale(1.02637 1.02637)" d="M234.578 396.662C240.297 396.483 248.497 395.542 254.421 395.067C252.897 401.919 250.698 408.495 249.287 415.675C243.709 444.068 246.586 464.652 252.764 492.093L251.88 492.728C236.989 463.038 230.981 429.682 234.578 396.662Z"/><path fill="#5A585B" fill-opacity="0.94901961" transform="scale(1.02637 1.02637)" d="M252.764 492.093C253.191 493.471 253.542 493.687 253.148 494.751C252.319 493.832 252.365 493.874 251.88 492.728L252.764 492.093Z"/><path fill="#2E3A5A" transform="scale(1.02637 1.02637)" d="M677.125 393.78L678.149 394.35C680.978 399.986 681.648 415.077 681.02 421.386C679.692 434.199 673.292 445.948 663.246 454.013C642.866 470.383 617.214 466.47 601.179 446.255C593.113 434.268 591.925 425.809 592.495 411.554C595.163 410.308 600.144 408.648 603.068 407.581C604.958 412.406 606.49 416.031 611.559 418.517C614.931 420.139 618.826 420.288 622.312 418.929C630.577 415.676 631.289 407.747 628.23 400.423C644.033 397.481 661.1 395.561 677.125 393.78Z"/><path fill="#2E3A5A" transform="scale(1.02637 1.02637)" d="M696.228 392.678C699.987 392.464 703.732 392.511 707.495 392.52C712.142 413.381 709.587 438.9 698.038 457.006C687.246 473.924 671.955 485.917 652.123 490.322C634.423 494.255 614.371 491.42 598.975 481.596C587.905 474.344 575.491 462.298 572.513 448.898C570.98 441.443 572.69 435.208 575.035 428.232C580.96 461.805 608.618 485.751 643.381 482.195C685.001 477.937 710.077 430.921 696.228 392.678Z"/><path fill="#2E3A5A" transform="scale(1.02637 1.02637)" d="M759.6 391.507C769.393 392.474 786.054 393.805 789.967 405.23C791.603 410.683 791.125 416.99 790.953 422.581C790.17 448.014 783.126 471.485 772.25 494.293L766.902 504.361C767.289 502.138 767.875 500.011 768.531 497.875C776.387 472.291 779.731 444.686 775.767 418.109C774.727 411.138 772.228 402.891 767.468 397.509C766.269 396.154 761.302 392.741 759.6 391.507Z"/><path fill="#2E3A5A" transform="scale(1.02637 1.02637)" d="M488.388 493.039C505.835 492.205 496.321 512.24 492.913 521.063C487.623 514.09 484.99 510.447 482.172 502.238C483.569 497.374 484.144 495.712 488.388 493.039Z"/><path fill="#2E3A5A" transform="scale(1.02637 1.02637)" d="M531.753 492.487C547.771 495.186 537.313 511.467 532.55 519.232C532.361 519.528 531.754 520.121 531.485 520.405L530.69 520.227C527.447 515.04 524.374 504.069 526.236 498.033C527.163 495.026 529.075 493.808 531.753 492.487Z"/><path fill="#7A787A" fill-opacity="0.0078431377" transform="scale(1.02637 1.02637)" d="M820.915 160.47C820.593 163.85 811.458 176.227 808.969 179.643C783.011 215.445 752.078 247.361 717.106 274.426C691.483 270.62 660.412 267.46 634.564 264.66C630.136 264.299 625.936 263.661 621.299 263.343C706.783 248.001 757.954 220.94 820.915 160.47Z"/><path fill="#5A585B" fill-opacity="0.0078431377" transform="scale(1.02637 1.02637)" d="M749.419 689.038L749.76 689.672C742.867 703.558 731.318 720.389 722.664 733.742C707.815 756.707 692.756 779.535 677.489 802.225L677.15 802.012C677.885 778.651 679.451 755.324 681.847 732.075C703.905 718.749 727.601 703.126 749.419 689.038Z"/><path fill="#CF6A33" transform="scale(1.02637 1.02637)" d="M553.152 513.372C554.679 514.91 560.124 524.917 561.887 527.643C565.276 532.884 568.333 536.976 572.102 541.957C558.216 566.616 542.601 589.501 527.967 613.656C525.352 617.812 523.067 621.4 520.172 625.396C529.936 587.703 540.935 550.342 553.152 513.372Z"/><path fill="#CF6A33" transform="scale(1.02637 1.02637)" d="M470.777 514.317C473.534 516.91 501.403 613.688 504.61 626.23L496.653 613.215C490.625 604.244 484.428 594.082 478.545 584.87C469.6 571.107 460.878 557.2 452.381 543.156C459.193 534.954 465.329 523.726 470.777 514.317Z"/><path fill="#2E3A5A" transform="scale(1.02637 1.02637)" d="M728.296 392.004L735.383 391.697C738.697 413.858 739.176 431.387 731.816 452.973C712.819 508.683 643.65 539.555 592.62 505.069C589.327 502.251 585.127 495.667 583.775 491.619C592.224 498.094 600.139 503.57 610.15 507.553C646.09 521.856 688.502 506.767 711.466 476.712C730.055 452.382 733.032 423.208 728.588 393.776C728.499 393.184 728.402 392.593 728.296 392.004Z"/><path fill="#D2D3D5" fill-opacity="0.0078431377" transform="scale(1.02637 1.02637)" d="M254.693 561.64C272.457 573.17 283.026 577.473 303.085 583.351C292.318 586.764 281.658 590.509 271.122 594.579C259.381 598.314 247.902 603.744 235.569 606.965C241.707 594.849 249.612 574.529 254.693 561.64Z"/><path fill="#F8F6F7" fill-opacity="0.0078431377" transform="scale(1.02637 1.02637)" d="M766.62 563.035C767.196 563.558 782.847 602.579 784.311 606.175C773.04 602.002 761.725 597.948 750.368 594.016C740.615 590.343 730.183 587.378 720.651 583.435C739.725 576.9 749.01 572.8 766.62 563.035Z"/><path fill="#FD8D42" transform="scale(1.02637 1.02637)" d="M280.43 325.937C289.188 327.604 299.127 328.079 308.101 329.032C304.426 332.397 294.164 342.84 289.625 342.987C280.182 343.2 270.742 343.538 261.308 344C267.625 337.64 273.508 331.652 280.43 325.937Z"/><path fill="#FD8D42" transform="scale(1.02637 1.02637)" d="M739.375 320.9C743.547 322.547 758.292 336.77 762.238 340.592C753.837 339.909 745.772 339.85 737.354 339.756C729.451 339.733 721.05 339.588 713.246 340.734C723.033 333.828 730.253 328.724 739.375 320.9Z"/><path fill="#F8F6F7" fill-opacity="0.011764706" transform="scale(1.02637 1.02637)" d="M584.138 553.669C601.771 567.237 624.515 579.743 646.613 583.823C641.128 592.615 635.854 601.536 630.795 610.58C628.196 615.148 621.892 626.724 618.782 630.372C617.554 629.226 617.25 628.034 616.611 626.466L617.498 626.194L618.561 627.161C620.615 625.692 632.223 604.618 634.762 600.558C635.787 598.917 635.281 596.618 637.433 594.301C639.275 592.315 643.526 587.335 643.846 584.762C630.577 582.366 615.854 575.574 603.857 569.46C600.203 567.598 595.519 563.793 591.737 562.676C592.196 565.364 593.086 568.281 593.862 570.917L594.056 571.562L592.811 572.621C590.193 566.845 586.983 559.168 584.138 553.669Z"/><path fill="#D2D3D5" fill-opacity="0.011764706" transform="scale(1.02637 1.02637)" d="M201.474 159.529C206.993 164.2 214.403 170.254 219.436 175.199C216.963 174.959 216.779 175.36 214.617 175.324L213.962 174.633C213.588 174.734 212.97 174.864 212.657 175.03C211.695 174.122 203.399 161.969 201.474 159.529Z"/><path fill="#D2D3D5" fill-opacity="0.011764706" transform="scale(1.02637 1.02637)" d="M151.372 492.7C156.569 494.815 154.169 490.618 157.454 493.945C154.067 497.607 150.699 501.286 147.35 504.981C148.366 500.702 149.872 496.822 151.372 492.7Z"/><path fill="#5A585B" fill-opacity="0.011764706" transform="scale(1.02637 1.02637)" d="M428.01 761.795C430.399 764.817 433.392 768.835 435.939 771.612C432.439 769.282 427.345 766.144 423.477 764.283C425.269 763.548 426.064 762.602 428.01 761.795Z"/><path fill="#A3A3A3" fill-opacity="0.015686275" transform="scale(1.02637 1.02637)" d="M860.222 505.537C863.31 509.096 866.435 512.622 869.599 516.114C866.38 514.616 863.133 513.18 859.86 511.806C861.425 510.148 861.179 511.023 861.359 509.272C859.859 507.529 859.639 507.591 860.222 505.537Z"/><path fill="#7A787A" fill-opacity="0.011764706" transform="scale(1.02637 1.02637)" d="M150.774 604.874L152.153 604.843C153.788 607.532 151.478 606.916 153.132 609.853L153.459 609.747C153.47 609.57 153.517 608.577 153.548 608.434C154.537 608.382 154.064 608.259 154.941 608.885L152.191 616.674C151.589 612.557 151.107 609.013 150.774 604.874Z"/><path fill="#F8F6F7" fill-opacity="0.031372551" transform="scale(1.02637 1.02637)" d="M582.87 492.766L583.775 491.619C585.127 495.667 589.327 502.251 592.62 505.069L591.223 506.576C588.362 502.106 585.25 497.485 582.87 492.766Z"/><path fill="#A3A3A3" fill-opacity="0.031372551" transform="scale(1.02637 1.02637)" d="M873.469 497.501L875.955 504.958C874.782 503.637 872.252 500.957 871.4 499.601C872.144 498.276 872.186 498.373 873.469 497.501Z"/><path fill="#F8F6F7" fill-opacity="0.015686275" transform="scale(1.02637 1.02637)" d="M852.879 145.578C853.563 143.938 854.074 142.17 855.423 141.102C855.832 142.369 855.434 143.435 855.154 144.776L853.852 145.824L852.879 145.578Z"/><path fill="#F8F6F7" fill-opacity="0.023529412" transform="scale(1.02637 1.02637)" d="M570.986 554.369L572.413 552.822L572.982 553.118C572.947 554.229 572.934 555.284 572.831 556.392C572.37 555.678 571.603 554.994 570.986 554.369Z"/><path fill="#F8F6F7" fill-opacity="0.019607844" transform="scale(1.02637 1.02637)" d="M506.138 169.046L508.273 165.675L508.899 165.673L509.037 167.98L506.138 169.046Z"/><path fill="#F8F6F7" fill-opacity="0.047058824" transform="scale(1.02637 1.02637)" d="M505.13 698.595L505.86 700.626L505.531 701.119C504.742 700.633 504.004 700.224 503.284 699.643L505.13 698.595Z"/><path fill="#F8F6F7" fill-opacity="0.10196079" transform="scale(1.02637 1.02637)" d="M616.198 650.65L616.836 648.872L617.252 648.79C617.523 650.155 617.563 650.415 617.591 651.802L616.198 650.65Z"/><path fill="#F8F6F7" fill-opacity="0.019607844" transform="scale(1.02637 1.02637)" d="M436.4 556.796L438.809 554.792L439.373 554.997L439.09 556.683L436.4 556.796Z"/><path fill="#F8F6F7" fill-opacity="0.015686275" transform="scale(1.02637 1.02637)" d="M323.231 659.644C325.274 659.642 324.404 659.355 326.007 660.267C324.734 661.651 325.293 661.605 324.043 661.721L323.231 659.644Z"/><path fill="#F8F6F7" fill-opacity="0.027450981" transform="scale(1.02637 1.02637)" d="M518.641 700.663L521.722 699.858C520.43 700.855 519.517 701.964 518.202 702.037L518.641 700.663Z"/><path fill="#F8F6F7" fill-opacity="0.011764706" transform="scale(1.02637 1.02637)" d="M698.129 661.964L698.435 663.194C697.133 663.474 696.72 663.056 695.237 662.571L698.129 661.964Z"/><path fill="#F8F6F7" fill-opacity="0.027450981" transform="scale(1.02637 1.02637)" d="M656.55 747.609L658.401 746.439L658.709 746.875L657.394 749.002L656.55 747.609Z"/><path fill="#F8F6F7" fill-opacity="0.031372551" transform="scale(1.02637 1.02637)" d="M611.355 629.871L612.54 629.013C612.951 629.992 612.92 629.969 613.166 630.996L612.565 631.063L611.355 629.871Z"/><path fill="#F8F6F7" fill-opacity="0.015686275" transform="scale(1.02637 1.02637)" d="M514.56 696.082L516.125 695.886C515.709 696.473 515.181 697.13 514.745 697.698L514.56 696.082Z"/></g></svg>